<?xml version="1.0" encoding="UTF-8"?>
<svg xmlns="http://www.w3.org/2000/svg" xmlns:xlink="http://www.w3.org/1999/xlink" width="192pt" height="150pt" viewBox="0 0 192 150" version="1.1">
<g id="surface1">
<path style=" stroke:none;fill-rule:nonzero;fill:rgb(90.196078%,90.196078%,90.196078%);fill-opacity:1;" d="M 28.894531 40.957031 C 29.214844 36.746094 30.097656 32.628906 31.511719 28.769531 C 31.90625 27.691406 32.335938 26.640625 32.8125 25.617188 C 32.859375 25.503906 32.828125 25.363281 32.738281 25.300781 C 32.648438 25.238281 32.535156 25.269531 32.476562 25.378906 C 30.757812 29.117188 29.554688 33.179688 28.910156 37.398438 C 28.730469 38.574219 28.597656 39.761719 28.507812 40.957031 C 28.484375 41.257812 28.871094 41.257812 28.894531 40.957031 Z M 28.894531 40.957031 "/>
<path style=" stroke:none;fill-rule:nonzero;fill:rgb(90.196078%,90.196078%,90.196078%);fill-opacity:1;" d="M 36.183594 23.390625 C 36.183594 25.035156 35.089844 26.371094 33.742188 26.371094 C 32.398438 26.371094 31.304688 25.035156 31.304688 23.390625 C 31.304688 21.746094 32.398438 20.410156 33.742188 20.410156 C 35.089844 20.410156 36.183594 21.746094 36.183594 23.390625 Z M 36.183594 23.390625 "/>
<path style=" stroke:none;fill-rule:nonzero;fill:rgb(90.196078%,90.196078%,90.196078%);fill-opacity:1;" d="M 29.144531 41.035156 C 29.351562 38.304688 29.925781 35.632812 30.839844 33.128906 C 31.097656 32.429688 31.378906 31.75 31.683594 31.082031 C 31.714844 31.011719 31.695312 30.921875 31.636719 30.878906 C 31.578125 30.835938 31.503906 30.859375 31.46875 30.929688 C 30.351562 33.355469 29.570312 35.992188 29.15625 38.726562 C 29.039062 39.492188 28.953125 40.261719 28.894531 41.035156 C 28.878906 41.230469 29.128906 41.230469 29.144531 41.035156 Z M 29.144531 41.035156 "/>
<path style=" stroke:none;fill-rule:nonzero;fill:rgb(90.196078%,90.196078%,90.196078%);fill-opacity:1;" d="M 33.871094 29.640625 C 33.871094 30.707031 33.164062 31.574219 32.289062 31.574219 C 31.414062 31.574219 30.707031 30.707031 30.707031 29.640625 C 30.707031 28.574219 31.414062 27.707031 32.289062 27.707031 C 33.164062 27.707031 33.871094 28.574219 33.871094 29.640625 Z M 33.871094 29.640625 "/>
<path style=" stroke:none;fill-rule:nonzero;fill:rgb(90.196078%,90.196078%,90.196078%);fill-opacity:1;" d="M 28.828125 40.851562 C 27.617188 38.542969 26.722656 36.007812 26.183594 33.34375 C 26.035156 32.601562 25.914062 31.851562 25.820312 31.097656 C 25.808594 31.015625 25.746094 30.960938 25.679688 30.972656 C 25.613281 30.980469 25.566406 31.054688 25.570312 31.136719 C 25.914062 33.890625 26.625 36.554688 27.675781 39.023438 C 27.96875 39.714844 28.285156 40.386719 28.628906 41.039062 C 28.71875 41.207031 28.914062 41.015625 28.828125 40.851562 Z M 28.828125 40.851562 "/>
<path style=" stroke:none;fill-rule:nonzero;fill:rgb(90.196078%,90.196078%,90.196078%);fill-opacity:1;" d="M 27.152344 29.503906 C 27.152344 30.570312 26.445312 31.4375 25.570312 31.4375 C 24.695312 31.4375 23.988281 30.570312 23.988281 29.503906 C 23.988281 28.4375 24.695312 27.570312 25.570312 27.570312 C 26.445312 27.570312 27.152344 28.4375 27.152344 29.503906 Z M 27.152344 29.503906 "/>
<path style=" stroke:none;fill-rule:nonzero;fill:rgb(94.901961%,94.901961%,94.901961%);fill-opacity:1;" d="M 23.96875 42.5625 L 23.96875 38.765625 C 23.96875 37.980469 24.492188 37.34375 25.136719 37.339844 L 32.390625 37.339844 C 33.035156 37.34375 33.554688 37.980469 33.554688 38.765625 L 33.554688 42.5625 C 33.554688 43.347656 33.035156 43.988281 32.390625 43.988281 L 25.136719 43.988281 C 24.492188 43.988281 23.96875 43.347656 23.96875 42.5625 Z M 23.96875 42.5625 "/>
<path style=" stroke:none;fill-rule:nonzero;fill:rgb(94.901961%,94.901961%,94.901961%);fill-opacity:1;" d="M 32.132812 18.355469 L 29.023438 18.355469 C 28.378906 18.355469 27.855469 17.714844 27.855469 16.929688 L 27.855469 1.425781 C 27.855469 0.636719 28.378906 0 29.023438 0 L 32.132812 0 C 32.773438 0 33.296875 0.636719 33.296875 1.425781 L 33.296875 16.929688 C 33.296875 17.714844 32.773438 18.355469 32.132812 18.355469 Z M 32.132812 18.355469 "/>
<path style=" stroke:none;fill-rule:nonzero;fill:rgb(80%,80%,80%);fill-opacity:1;" d="M 27.984375 3.007812 L 33.167969 3.007812 L 33.167969 4.273438 L 27.984375 4.273438 Z M 27.984375 3.007812 "/>
<path style=" stroke:none;fill-rule:nonzero;fill:rgb(80%,80%,80%);fill-opacity:1;" d="M 27.984375 12.816406 L 33.167969 12.816406 L 33.167969 14.082031 L 27.984375 14.082031 Z M 27.984375 12.816406 "/>
<path style=" stroke:none;fill-rule:nonzero;fill:rgb(94.901961%,94.901961%,94.901961%);fill-opacity:1;" d="M 39.90625 18.355469 L 36.796875 18.355469 C 36.152344 18.355469 35.628906 17.714844 35.628906 16.929688 L 35.628906 1.425781 C 35.628906 0.636719 36.152344 0 36.796875 0 L 39.90625 0 C 40.546875 0 41.070312 0.636719 41.070312 1.425781 L 41.070312 16.929688 C 41.070312 17.714844 40.546875 18.355469 39.90625 18.355469 Z M 39.90625 18.355469 "/>
<path style=" stroke:none;fill-rule:nonzero;fill:rgb(80%,80%,80%);fill-opacity:1;" d="M 35.757812 3.007812 L 40.941406 3.007812 L 40.941406 4.273438 L 35.757812 4.273438 Z M 35.757812 3.007812 "/>
<path style=" stroke:none;fill-rule:nonzero;fill:rgb(80%,80%,80%);fill-opacity:1;" d="M 35.757812 12.816406 L 40.941406 12.816406 L 40.941406 14.082031 L 35.757812 14.082031 Z M 35.757812 12.816406 "/>
<path style=" stroke:none;fill-rule:nonzero;fill:rgb(94.901961%,94.901961%,94.901961%);fill-opacity:1;" d="M 47.679688 18.355469 L 44.570312 18.355469 C 43.925781 18.355469 43.402344 17.714844 43.402344 16.929688 L 43.402344 1.425781 C 43.402344 0.636719 43.925781 0 44.570312 0 L 47.679688 0 C 48.320312 0 48.84375 0.636719 48.84375 1.425781 L 48.84375 16.929688 C 48.84375 17.714844 48.320312 18.355469 47.679688 18.355469 Z M 47.679688 18.355469 "/>
<path style=" stroke:none;fill-rule:nonzero;fill:rgb(80%,80%,80%);fill-opacity:1;" d="M 43.53125 3.007812 L 48.714844 3.007812 L 48.714844 4.273438 L 43.53125 4.273438 Z M 43.53125 3.007812 "/>
<path style=" stroke:none;fill-rule:nonzero;fill:rgb(80%,80%,80%);fill-opacity:1;" d="M 43.53125 12.816406 L 48.714844 12.816406 L 48.714844 14.082031 L 43.53125 14.082031 Z M 43.53125 12.816406 "/>
<path style=" stroke:none;fill-rule:nonzero;fill:rgb(94.901961%,94.901961%,94.901961%);fill-opacity:1;" d="M 51.824219 43.988281 L 48.714844 43.988281 C 48.070312 43.988281 47.550781 43.347656 47.546875 42.5625 L 47.546875 27.058594 C 47.550781 26.269531 48.070312 25.632812 48.714844 25.632812 L 51.824219 25.632812 C 52.46875 25.632812 52.988281 26.269531 52.988281 27.058594 L 52.988281 42.5625 C 52.988281 43.347656 52.46875 43.988281 51.824219 43.988281 Z M 51.824219 43.988281 "/>
<path style=" stroke:none;fill-rule:nonzero;fill:rgb(80%,80%,80%);fill-opacity:1;" d="M 47.679688 28.640625 L 52.859375 28.640625 L 52.859375 29.90625 L 47.679688 29.90625 Z M 47.679688 28.640625 "/>
<path style=" stroke:none;fill-rule:nonzero;fill:rgb(80%,80%,80%);fill-opacity:1;" d="M 47.679688 38.449219 L 52.859375 38.449219 L 52.859375 39.714844 L 47.679688 39.714844 Z M 47.679688 38.449219 "/>
<path style=" stroke:none;fill-rule:nonzero;fill:rgb(94.901961%,94.901961%,94.901961%);fill-opacity:1;" d="M 59.597656 43.988281 L 56.488281 43.988281 C 55.84375 43.988281 55.324219 43.347656 55.320312 42.5625 L 55.320312 27.058594 C 55.324219 26.269531 55.84375 25.632812 56.488281 25.632812 L 59.597656 25.632812 C 60.242188 25.632812 60.761719 26.269531 60.761719 27.058594 L 60.761719 42.5625 C 60.761719 43.347656 60.242188 43.988281 59.597656 43.988281 Z M 59.597656 43.988281 "/>
<path style=" stroke:none;fill-rule:nonzero;fill:rgb(80%,80%,80%);fill-opacity:1;" d="M 55.453125 28.640625 L 60.632812 28.640625 L 60.632812 29.90625 L 55.453125 29.90625 Z M 55.453125 28.640625 "/>
<path style=" stroke:none;fill-rule:nonzero;fill:rgb(80%,80%,80%);fill-opacity:1;" d="M 55.453125 38.449219 L 60.632812 38.449219 L 60.632812 39.714844 L 55.453125 39.714844 Z M 55.453125 38.449219 "/>
<path style=" stroke:none;fill-rule:nonzero;fill:rgb(94.901961%,94.901961%,94.901961%);fill-opacity:1;" d="M 67.371094 43.988281 L 64.261719 43.988281 C 63.617188 43.988281 63.09375 43.347656 63.09375 42.5625 L 63.09375 27.058594 C 63.09375 26.269531 63.617188 25.632812 64.261719 25.632812 L 67.371094 25.632812 C 68.015625 25.632812 68.535156 26.269531 68.535156 27.058594 L 68.535156 42.5625 C 68.535156 43.347656 68.015625 43.988281 67.371094 43.988281 Z M 67.371094 43.988281 "/>
<path style=" stroke:none;fill-rule:nonzero;fill:rgb(80%,80%,80%);fill-opacity:1;" d="M 63.222656 28.640625 L 68.40625 28.640625 L 68.40625 29.90625 L 63.222656 29.90625 Z M 63.222656 28.640625 "/>
<path style=" stroke:none;fill-rule:nonzero;fill:rgb(80%,80%,80%);fill-opacity:1;" d="M 63.222656 38.449219 L 68.40625 38.449219 L 68.40625 39.714844 L 63.222656 39.714844 Z M 63.222656 38.449219 "/>
<path style=" stroke:none;fill-rule:nonzero;fill:rgb(94.901961%,94.901961%,94.901961%);fill-opacity:1;" d="M 31.355469 69.621094 L 28.246094 69.621094 C 27.601562 69.621094 27.078125 68.980469 27.078125 68.195312 L 27.078125 52.691406 C 27.078125 51.902344 27.601562 51.265625 28.246094 51.265625 L 31.355469 51.265625 C 31.996094 51.265625 32.519531 51.902344 32.519531 52.691406 L 32.519531 68.195312 C 32.519531 68.980469 31.996094 69.621094 31.355469 69.621094 Z M 31.355469 69.621094 "/>
<path style=" stroke:none;fill-rule:nonzero;fill:rgb(80%,80%,80%);fill-opacity:1;" d="M 27.207031 54.273438 L 32.390625 54.273438 L 32.390625 55.539062 L 27.207031 55.539062 Z M 27.207031 54.273438 "/>
<path style=" stroke:none;fill-rule:nonzero;fill:rgb(80%,80%,80%);fill-opacity:1;" d="M 27.207031 64.082031 L 32.390625 64.082031 L 32.390625 65.347656 L 27.207031 65.347656 Z M 27.207031 64.082031 "/>
<path style=" stroke:none;fill-rule:nonzero;fill:rgb(94.901961%,94.901961%,94.901961%);fill-opacity:1;" d="M 39.128906 69.621094 L 36.019531 69.621094 C 35.375 69.621094 34.851562 68.980469 34.851562 68.195312 L 34.851562 52.691406 C 34.851562 51.902344 35.375 51.265625 36.019531 51.265625 L 39.128906 51.265625 C 39.769531 51.265625 40.292969 51.902344 40.292969 52.691406 L 40.292969 68.195312 C 40.292969 68.980469 39.769531 69.621094 39.128906 69.621094 Z M 39.128906 69.621094 "/>
<path style=" stroke:none;fill-rule:nonzero;fill:rgb(80%,80%,80%);fill-opacity:1;" d="M 34.980469 54.273438 L 40.164062 54.273438 L 40.164062 55.539062 L 34.980469 55.539062 Z M 34.980469 54.273438 "/>
<path style=" stroke:none;fill-rule:nonzero;fill:rgb(80%,80%,80%);fill-opacity:1;" d="M 34.980469 64.082031 L 40.164062 64.082031 L 40.164062 65.347656 L 34.980469 65.347656 Z M 34.980469 64.082031 "/>
<path style=" stroke:none;fill-rule:nonzero;fill:rgb(94.901961%,94.901961%,94.901961%);fill-opacity:1;" d="M 46.902344 69.621094 L 43.792969 69.621094 C 43.148438 69.621094 42.625 68.980469 42.625 68.195312 L 42.625 52.691406 C 42.625 51.902344 43.148438 51.265625 43.792969 51.265625 L 46.902344 51.265625 C 47.542969 51.265625 48.066406 51.902344 48.066406 52.691406 L 48.066406 68.195312 C 48.066406 68.980469 47.542969 69.621094 46.902344 69.621094 Z M 46.902344 69.621094 "/>
<path style=" stroke:none;fill-rule:nonzero;fill:rgb(80%,80%,80%);fill-opacity:1;" d="M 42.753906 54.273438 L 47.9375 54.273438 L 47.9375 55.539062 L 42.753906 55.539062 Z M 42.753906 54.273438 "/>
<path style=" stroke:none;fill-rule:nonzero;fill:rgb(80%,80%,80%);fill-opacity:1;" d="M 42.753906 64.082031 L 47.9375 64.082031 L 47.9375 65.347656 L 42.753906 65.347656 Z M 42.753906 64.082031 "/>
<path style=" stroke:none;fill-rule:nonzero;fill:rgb(94.901961%,94.901961%,94.901961%);fill-opacity:1;" d="M 55.453125 18.355469 L 52.34375 18.355469 C 51.699219 18.355469 51.175781 17.714844 51.175781 16.929688 L 51.175781 1.425781 C 51.175781 0.636719 51.699219 0 52.34375 0 L 55.453125 0 C 56.09375 0 56.617188 0.636719 56.617188 1.425781 L 56.617188 16.929688 C 56.617188 17.714844 56.09375 18.355469 55.453125 18.355469 Z M 55.453125 18.355469 "/>
<path style=" stroke:none;fill-rule:nonzero;fill:rgb(80%,80%,80%);fill-opacity:1;" d="M 51.304688 3.007812 L 56.488281 3.007812 L 56.488281 4.273438 L 51.304688 4.273438 Z M 51.304688 3.007812 "/>
<path style=" stroke:none;fill-rule:nonzero;fill:rgb(80%,80%,80%);fill-opacity:1;" d="M 51.304688 12.816406 L 56.488281 12.816406 L 56.488281 14.082031 L 51.304688 14.082031 Z M 51.304688 12.816406 "/>
<path style=" stroke:none;fill-rule:nonzero;fill:rgb(94.901961%,94.901961%,94.901961%);fill-opacity:1;" d="M 63.222656 18.355469 L 60.113281 18.355469 C 59.472656 18.355469 58.949219 17.714844 58.949219 16.929688 L 58.949219 1.425781 C 58.949219 0.636719 59.472656 0 60.113281 0 L 63.222656 0 C 63.867188 0 64.390625 0.636719 64.390625 1.425781 L 64.390625 16.929688 C 64.390625 17.714844 63.867188 18.355469 63.222656 18.355469 Z M 63.222656 18.355469 "/>
<path style=" stroke:none;fill-rule:nonzero;fill:rgb(80%,80%,80%);fill-opacity:1;" d="M 59.078125 3.007812 L 64.261719 3.007812 L 64.261719 4.273438 L 59.078125 4.273438 Z M 59.078125 3.007812 "/>
<path style=" stroke:none;fill-rule:nonzero;fill:rgb(80%,80%,80%);fill-opacity:1;" d="M 59.078125 12.816406 L 64.261719 12.816406 L 64.261719 14.082031 L 59.078125 14.082031 Z M 59.078125 12.816406 "/>
<path style=" stroke:none;fill-rule:nonzero;fill:rgb(94.901961%,94.901961%,94.901961%);fill-opacity:1;" d="M 70.996094 18.355469 L 67.886719 18.355469 C 67.246094 18.355469 66.722656 17.714844 66.722656 16.929688 L 66.722656 1.425781 C 66.722656 0.636719 67.246094 0 67.886719 0 L 70.996094 0 C 71.640625 0 72.164062 0.636719 72.164062 1.425781 L 72.164062 16.929688 C 72.164062 17.714844 71.640625 18.355469 70.996094 18.355469 Z M 70.996094 18.355469 "/>
<path style=" stroke:none;fill-rule:nonzero;fill:rgb(80%,80%,80%);fill-opacity:1;" d="M 66.851562 3.007812 L 72.035156 3.007812 L 72.035156 4.273438 L 66.851562 4.273438 Z M 66.851562 3.007812 "/>
<path style=" stroke:none;fill-rule:nonzero;fill:rgb(80%,80%,80%);fill-opacity:1;" d="M 66.851562 12.816406 L 72.035156 12.816406 L 72.035156 14.082031 L 66.851562 14.082031 Z M 66.851562 12.816406 "/>
<path style=" stroke:none;fill-rule:nonzero;fill:rgb(94.901961%,94.901961%,94.901961%);fill-opacity:1;" d="M 78.769531 18.355469 L 75.660156 18.355469 C 75.019531 18.355469 74.496094 17.714844 74.496094 16.929688 L 74.496094 1.425781 C 74.496094 0.636719 75.019531 0 75.660156 0 L 78.769531 0 C 79.414062 0 79.9375 0.636719 79.9375 1.425781 L 79.9375 16.929688 C 79.9375 17.714844 79.414062 18.355469 78.769531 18.355469 Z M 78.769531 18.355469 "/>
<path style=" stroke:none;fill-rule:nonzero;fill:rgb(80%,80%,80%);fill-opacity:1;" d="M 74.625 3.007812 L 79.808594 3.007812 L 79.808594 4.273438 L 74.625 4.273438 Z M 74.625 3.007812 "/>
<path style=" stroke:none;fill-rule:nonzero;fill:rgb(80%,80%,80%);fill-opacity:1;" d="M 74.625 12.816406 L 79.808594 12.816406 L 79.808594 14.082031 L 74.625 14.082031 Z M 74.625 12.816406 "/>
<path style=" stroke:none;fill-rule:nonzero;fill:rgb(80%,80%,80%);fill-opacity:1;" d="M 90.414062 18.828125 L 16.570312 18.828125 C 16.425781 18.828125 16.308594 18.6875 16.308594 18.511719 C 16.308594 18.335938 16.425781 18.195312 16.570312 18.195312 L 90.414062 18.195312 C 90.558594 18.195312 90.675781 18.335938 90.675781 18.511719 C 90.675781 18.6875 90.558594 18.828125 90.414062 18.828125 Z M 90.414062 18.828125 "/>
<path style=" stroke:none;fill-rule:nonzero;fill:rgb(80%,80%,80%);fill-opacity:1;" d="M 90.414062 44.460938 L 16.570312 44.460938 C 16.425781 44.460938 16.308594 44.320312 16.308594 44.144531 C 16.308594 43.972656 16.425781 43.828125 16.570312 43.828125 L 90.414062 43.828125 C 90.558594 43.828125 90.675781 43.972656 90.675781 44.144531 C 90.675781 44.320312 90.558594 44.460938 90.414062 44.460938 Z M 90.414062 44.460938 "/>
<path style=" stroke:none;fill-rule:nonzero;fill:rgb(80%,80%,80%);fill-opacity:1;" d="M 90.414062 70.09375 L 16.570312 70.09375 C 16.425781 70.09375 16.308594 69.953125 16.308594 69.777344 C 16.308594 69.605469 16.425781 69.460938 16.570312 69.460938 L 90.414062 69.460938 C 90.558594 69.460938 90.675781 69.605469 90.675781 69.777344 C 90.675781 69.953125 90.558594 70.09375 90.414062 70.09375 Z M 90.414062 70.09375 "/>
<path style=" stroke:none;fill-rule:nonzero;fill:rgb(80%,80%,80%);fill-opacity:1;" d="M 86.042969 119.773438 C 86.042969 117.324219 78.5 115.34375 69.199219 115.34375 C 59.898438 115.34375 52.359375 117.324219 52.359375 119.773438 C 52.359375 121.339844 55.457031 122.71875 60.132812 123.503906 L 60.132812 147.777344 C 60.132812 148.914062 60.886719 149.835938 61.816406 149.835938 C 62.746094 149.835938 63.5 148.914062 63.5 147.777344 L 63.5 123.941406 C 65.28125 124.109375 67.199219 124.203125 69.199219 124.203125 C 71.203125 124.203125 73.121094 124.109375 74.902344 123.941406 L 74.902344 147.777344 C 74.902344 148.914062 75.65625 149.835938 76.585938 149.835938 C 77.515625 149.835938 78.269531 148.914062 78.269531 147.777344 L 78.269531 123.503906 C 82.941406 122.71875 86.042969 121.339844 86.042969 119.773438 Z M 86.042969 119.773438 "/>
<path style=" stroke:none;fill-rule:nonzero;fill:rgb(62.745098%,38.039216%,41.568627%);fill-opacity:1;" d="M 82.800781 145.855469 L 85.976562 145.855469 L 87.488281 130.890625 L 82.800781 130.890625 Z M 82.800781 145.855469 "/>
<path style=" stroke:none;fill-rule:nonzero;fill:rgb(18.431373%,18.039216%,25.490196%);fill-opacity:1;" d="M 92.105469 149.457031 L 82.121094 149.457031 L 82.121094 144.746094 L 88.246094 144.746094 C 90.378906 144.746094 92.105469 146.855469 92.105469 149.457031 Z M 92.105469 149.457031 "/>
<path style=" stroke:none;fill-rule:nonzero;fill:rgb(62.745098%,38.039216%,41.568627%);fill-opacity:1;" d="M 87.761719 143.691406 L 90.792969 142.53125 L 88.566406 127.699219 L 84.09375 129.414062 Z M 87.761719 143.691406 "/>
<path style=" stroke:none;fill-rule:nonzero;fill:rgb(18.431373%,18.039216%,25.490196%);fill-opacity:1;" d="M 97.519531 143.726562 L 87.996094 147.378906 L 86.839844 142.882812 L 92.683594 140.640625 C 94.71875 139.863281 96.882812 141.242188 97.519531 143.726562 Z M 97.519531 143.726562 "/>
<path style=" stroke:none;fill-rule:nonzero;fill:rgb(18.431373%,18.039216%,25.490196%);fill-opacity:1;" d="M 85.636719 136.804688 L 79.824219 118.171875 C 78.519531 118.546875 67.585938 121.503906 63.925781 116.742188 C 62.671875 115.109375 62.425781 112.742188 63.199219 109.710938 L 65.335938 106.433594 L 65.402344 106.4375 C 66.210938 106.488281 85.207031 107.789062 86.507812 114.789062 C 87.605469 120.6875 89.613281 131.6875 90.199219 134.917969 C 90.324219 135.609375 90.011719 136.308594 89.472656 136.558594 L 87.132812 137.628906 C 87.003906 137.691406 86.867188 137.71875 86.726562 137.71875 C 86.242188 137.71875 85.808594 137.355469 85.636719 136.804688 Z M 85.636719 136.804688 "/>
<path style=" stroke:none;fill-rule:nonzero;fill:rgb(18.431373%,18.039216%,25.490196%);fill-opacity:1;" d="M 82.265625 139.019531 L 76.457031 120.386719 C 75.152344 120.761719 64.21875 123.71875 60.558594 118.957031 C 59.300781 117.324219 59.058594 114.960938 59.828125 111.925781 L 61.964844 108.648438 L 62.03125 108.652344 C 62.839844 108.703125 81.839844 110.003906 83.140625 117.003906 C 84.238281 122.902344 86.242188 133.902344 86.832031 137.132812 C 86.957031 137.828125 86.644531 138.523438 86.101562 138.773438 L 83.765625 139.84375 C 83.636719 139.90625 83.496094 139.933594 83.359375 139.933594 C 82.875 139.933594 82.441406 139.570312 82.265625 139.019531 Z M 82.265625 139.019531 "/>
<path style=" stroke:none;fill-rule:nonzero;fill:rgb(62.745098%,38.039216%,41.568627%);fill-opacity:1;" d="M 90.121094 94.359375 C 90.035156 94.5 89.957031 94.648438 89.890625 94.804688 L 77.113281 96.449219 L 75.273438 93.367188 L 71.101562 96.148438 L 74.714844 103.625 L 90.386719 98.746094 C 91.199219 99.707031 92.410156 99.960938 93.4375 99.375 C 94.460938 98.792969 95.082031 97.496094 95 96.117188 C 94.914062 94.742188 94.140625 93.570312 93.058594 93.179688 C 91.972656 92.789062 90.804688 93.257812 90.121094 94.359375 Z M 90.121094 94.359375 "/>
<path style=" stroke:none;fill-rule:nonzero;fill:rgb(31.372549%,37.254902%,59.607843%);fill-opacity:1;" d="M 59.746094 112.910156 C 59.390625 112.597656 59.207031 112.066406 59.277344 111.535156 C 59.996094 105.730469 59.167969 97.414062 58.34375 91.460938 C 58.003906 89.011719 58.632812 86.507812 60.039062 84.714844 C 61.445312 82.921875 63.46875 82.046875 65.484375 82.359375 C 66.351562 82.5 67.210938 82.707031 68.054688 82.976562 C 70.945312 83.867188 72.945312 87.082031 72.867188 90.722656 C 72.746094 96.464844 73.699219 103.632812 74.117188 106.449219 C 74.175781 106.839844 74.097656 107.242188 73.902344 107.558594 C 73.710938 107.875 73.417969 108.074219 73.097656 108.113281 C 68.484375 108.6875 63.507812 111.4375 60.953125 113.023438 C 60.789062 113.128906 60.609375 113.183594 60.421875 113.183594 C 60.179688 113.183594 59.941406 113.085938 59.746094 112.910156 Z M 59.746094 112.910156 "/>
<path style=" stroke:none;fill-rule:nonzero;fill:rgb(31.372549%,37.254902%,59.607843%);fill-opacity:1;" d="M 72.203125 97.9375 C 71.914062 97.800781 71.683594 97.527344 71.5625 97.179688 L 68.988281 89.921875 C 68.332031 88.074219 69.027344 85.929688 70.539062 85.132812 C 72.050781 84.332031 73.804688 85.183594 74.457031 87.03125 L 77.03125 94.289062 C 77.285156 95.011719 77.015625 95.847656 76.425781 96.160156 L 73.09375 97.921875 C 72.8125 98.074219 72.492188 98.078125 72.203125 97.9375 Z M 72.203125 97.9375 "/>
<path style=" stroke:none;fill-rule:nonzero;fill:rgb(62.745098%,38.039216%,41.568627%);fill-opacity:1;" d="M 77.941406 93.726562 C 77.855469 93.867188 77.78125 94.015625 77.710938 94.171875 L 64.933594 95.816406 L 63.09375 92.734375 L 58.925781 95.515625 L 62.539062 102.992188 L 78.210938 98.113281 C 79.019531 99.074219 80.234375 99.328125 81.257812 98.742188 C 82.28125 98.160156 82.90625 96.863281 82.820312 95.484375 C 82.738281 94.109375 81.964844 92.9375 80.878906 92.546875 C 79.792969 92.15625 78.625 92.625 77.941406 93.726562 Z M 77.941406 93.726562 "/>
<path style=" stroke:none;fill-rule:nonzero;fill:rgb(31.372549%,37.254902%,59.607843%);fill-opacity:1;" d="M 60.023438 98.253906 C 59.738281 98.117188 59.507812 97.84375 59.382812 97.496094 L 56.8125 90.238281 C 56.15625 88.390625 56.847656 86.246094 58.359375 85.449219 C 59.871094 84.648438 61.625 85.5 62.28125 87.347656 L 64.851562 94.605469 C 65.109375 95.328125 64.835938 96.164062 64.246094 96.476562 L 60.917969 98.238281 C 60.632812 98.390625 60.3125 98.394531 60.023438 98.253906 Z M 60.023438 98.253906 "/>
<path style=" stroke:none;fill-rule:nonzero;fill:rgb(62.745098%,38.039216%,41.568627%);fill-opacity:1;" d="M 71.375 72.117188 C 71.375 76.410156 68.527344 79.890625 65.011719 79.890625 C 61.496094 79.890625 58.648438 76.410156 58.648438 72.117188 C 58.648438 67.824219 61.496094 64.34375 65.011719 64.34375 C 68.527344 64.34375 71.375 67.824219 71.375 72.117188 Z M 71.375 72.117188 "/>
<path style=" stroke:none;fill-rule:nonzero;fill:rgb(18.431373%,18.039216%,25.490196%);fill-opacity:1;" d="M 60.460938 77.453125 C 60.40625 77.253906 60.429688 77.035156 60.523438 76.863281 C 60.617188 76.6875 60.773438 76.574219 60.941406 76.558594 C 61.292969 76.582031 61.617188 76.777344 61.84375 77.101562 C 62.074219 77.425781 62.34375 77.707031 62.640625 77.9375 C 62.949219 78.125 63.363281 78.097656 63.539062 77.738281 C 63.707031 77.398438 63.59375 76.945312 63.492188 76.550781 C 63.238281 75.546875 63.097656 74.507812 63.070312 73.457031 C 63.042969 72.289062 63.175781 71.066406 63.707031 70.152344 C 64.390625 68.972656 65.617188 68.527344 66.777344 68.558594 C 67.9375 68.589844 69.078125 69.027344 70.226562 69.304688 C 70.621094 69.398438 71.085938 69.449219 71.351562 69.074219 C 71.632812 68.675781 71.53125 68.027344 71.410156 67.488281 C 71.097656 66.089844 70.769531 64.644531 70.046875 63.515625 C 69.265625 62.34375 68.148438 61.578125 66.921875 61.367188 C 65.742188 61.191406 64.546875 61.355469 63.433594 61.851562 C 61.617188 62.550781 60.019531 63.910156 58.851562 65.75 C 57.648438 67.707031 57.128906 70.164062 57.40625 72.585938 C 57.675781 74.695312 58.59375 76.601562 59.96875 77.917969 Z M 60.460938 77.453125 "/>
<path style=" stroke:none;fill-rule:nonzero;fill:rgb(24.705882%,23.921569%,33.72549%);fill-opacity:1;" d="M 36.164062 96.164062 C 36.484375 91.953125 37.367188 87.835938 38.78125 83.972656 C 39.171875 82.898438 39.605469 81.847656 40.082031 80.824219 C 40.128906 80.710938 40.097656 80.570312 40.007812 80.507812 C 39.917969 80.441406 39.804688 80.476562 39.746094 80.585938 C 38.027344 84.324219 36.820312 88.386719 36.179688 92.605469 C 36 93.78125 35.867188 94.96875 35.777344 96.164062 C 35.753906 96.464844 36.140625 96.460938 36.164062 96.164062 Z M 36.164062 96.164062 "/>
<path style=" stroke:none;fill-rule:nonzero;fill:rgb(31.372549%,37.254902%,59.607843%);fill-opacity:1;" d="M 43.453125 78.597656 C 43.453125 80.242188 42.359375 81.578125 41.011719 81.578125 C 39.664062 81.578125 38.574219 80.242188 38.574219 78.597656 C 38.574219 76.953125 39.664062 75.617188 41.011719 75.617188 C 42.359375 75.617188 43.453125 76.953125 43.453125 78.597656 Z M 43.453125 78.597656 "/>
<path style=" stroke:none;fill-rule:nonzero;fill:rgb(24.705882%,23.921569%,33.72549%);fill-opacity:1;" d="M 36.414062 96.242188 C 36.621094 93.511719 37.195312 90.839844 38.109375 88.335938 C 38.367188 87.636719 38.648438 86.957031 38.953125 86.289062 C 38.984375 86.21875 38.964844 86.128906 38.90625 86.085938 C 38.847656 86.042969 38.773438 86.066406 38.738281 86.136719 C 37.621094 88.5625 36.839844 91.195312 36.421875 93.933594 C 36.308594 94.699219 36.222656 95.46875 36.164062 96.242188 C 36.148438 96.4375 36.398438 96.4375 36.414062 96.242188 Z M 36.414062 96.242188 "/>
<path style=" stroke:none;fill-rule:nonzero;fill:rgb(31.372549%,37.254902%,59.607843%);fill-opacity:1;" d="M 41.140625 84.847656 C 41.140625 85.914062 40.433594 86.78125 39.558594 86.78125 C 38.683594 86.78125 37.976562 85.914062 37.976562 84.847656 C 37.976562 83.777344 38.683594 82.914062 39.558594 82.914062 C 40.433594 82.914062 41.140625 83.777344 41.140625 84.847656 Z M 41.140625 84.847656 "/>
<path style=" stroke:none;fill-rule:nonzero;fill:rgb(24.705882%,23.921569%,33.72549%);fill-opacity:1;" d="M 36.097656 96.058594 C 34.886719 93.75 33.992188 91.214844 33.453125 88.550781 C 33.304688 87.808594 33.183594 87.058594 33.089844 86.304688 C 33.078125 86.222656 33.015625 86.167969 32.949219 86.179688 C 32.882812 86.1875 32.835938 86.261719 32.839844 86.34375 C 33.183594 89.097656 33.894531 91.761719 34.941406 94.230469 C 35.238281 94.921875 35.554688 95.59375 35.898438 96.246094 C 35.988281 96.414062 36.183594 96.222656 36.097656 96.058594 Z M 36.097656 96.058594 "/>
<path style=" stroke:none;fill-rule:nonzero;fill:rgb(31.372549%,37.254902%,59.607843%);fill-opacity:1;" d="M 34.421875 84.710938 C 34.421875 85.777344 33.714844 86.644531 32.839844 86.644531 C 31.964844 86.644531 31.257812 85.777344 31.257812 84.710938 C 31.257812 83.644531 31.964844 82.777344 32.839844 82.777344 C 33.714844 82.777344 34.421875 83.644531 34.421875 84.710938 Z M 34.421875 84.710938 "/>
<path style=" stroke:none;fill-rule:nonzero;fill:rgb(80%,80%,80%);fill-opacity:1;" d="M 31.238281 97.769531 L 31.238281 93.972656 C 31.238281 93.1875 31.761719 92.550781 32.40625 92.546875 L 39.660156 92.546875 C 40.304688 92.550781 40.824219 93.1875 40.824219 93.972656 L 40.824219 97.769531 C 40.824219 98.554688 40.304688 99.191406 39.660156 99.195312 L 32.40625 99.195312 C 31.761719 99.191406 31.238281 98.554688 31.238281 97.769531 Z M 31.238281 97.769531 "/>
<path style=" stroke:none;fill-rule:nonzero;fill:rgb(80%,80%,80%);fill-opacity:1;" d="M 75.808594 96.671875 L 96.277344 96.671875 C 96.777344 96.671875 97.183594 97.167969 97.183594 97.777344 C 97.183594 98.390625 96.777344 98.886719 96.277344 98.886719 L 75.808594 98.886719 C 75.308594 98.886719 74.902344 98.390625 74.902344 97.777344 C 74.902344 97.167969 75.308594 96.671875 75.808594 96.671875 Z M 75.808594 96.671875 "/>
<path style=" stroke:none;fill-rule:nonzero;fill:rgb(80%,80%,80%);fill-opacity:1;" d="M 110.011719 98.886719 L 86.949219 98.886719 C 86.019531 98.886719 85.265625 97.964844 85.265625 96.828125 L 85.265625 81.324219 C 85.265625 80.1875 86.019531 79.269531 86.949219 79.265625 L 110.011719 79.265625 C 110.941406 79.269531 111.691406 80.1875 111.695312 81.324219 L 111.695312 96.828125 C 111.691406 97.964844 110.941406 98.886719 110.011719 98.886719 Z M 110.011719 98.886719 "/>
<path style=" stroke:none;fill-rule:nonzero;fill:rgb(100%,100%,100%);fill-opacity:1;" d="M 100.035156 89.078125 C 100.035156 90.125 99.339844 90.976562 98.480469 90.976562 C 97.621094 90.976562 96.925781 90.125 96.925781 89.078125 C 96.925781 88.027344 97.621094 87.179688 98.480469 87.179688 C 99.339844 87.179688 100.035156 88.027344 100.035156 89.078125 Z M 100.035156 89.078125 "/>
<path style=" stroke:none;fill-rule:nonzero;fill:rgb(80%,80%,80%);fill-opacity:1;" d="M 168.699219 119.773438 C 168.699219 117.324219 161.15625 115.34375 151.855469 115.34375 C 142.554688 115.34375 135.015625 117.324219 135.015625 119.773438 C 135.015625 121.339844 138.113281 122.71875 142.789062 123.503906 L 142.789062 147.777344 C 142.789062 148.914062 143.542969 149.835938 144.472656 149.835938 C 145.402344 149.835938 146.15625 148.914062 146.15625 147.777344 L 146.15625 123.941406 C 147.9375 124.109375 149.855469 124.203125 151.855469 124.203125 C 153.855469 124.203125 155.777344 124.109375 157.554688 123.941406 L 157.554688 147.777344 C 157.554688 148.914062 158.3125 149.835938 159.242188 149.835938 C 160.171875 149.835938 160.925781 148.914062 160.925781 147.777344 L 160.925781 123.503906 C 165.597656 122.71875 168.699219 121.339844 168.699219 119.773438 Z M 168.699219 119.773438 "/>
<path style=" stroke:none;fill-rule:nonzero;fill:rgb(18.431373%,18.039216%,25.490196%);fill-opacity:1;" d="M 160.972656 70.359375 C 160.972656 75.253906 157.726562 79.222656 153.71875 79.222656 C 149.710938 79.222656 146.464844 75.253906 146.464844 70.359375 C 146.464844 65.46875 149.710938 61.5 153.71875 61.5 C 157.726562 61.5 160.972656 65.46875 160.972656 70.359375 Z M 160.972656 70.359375 "/>
<path style=" stroke:none;fill-rule:nonzero;fill:rgb(100%,72.156863%,72.156863%);fill-opacity:1;" d="M 135.664062 146.171875 L 132.488281 146.171875 L 130.976562 131.207031 L 135.664062 131.207031 Z M 135.664062 146.171875 "/>
<path style=" stroke:none;fill-rule:nonzero;fill:rgb(18.431373%,18.039216%,25.490196%);fill-opacity:1;" d="M 130.21875 145.0625 L 136.34375 145.0625 L 136.34375 149.773438 L 126.359375 149.773438 C 126.359375 147.171875 128.085938 145.0625 130.21875 145.0625 Z M 130.21875 145.0625 "/>
<path style=" stroke:none;fill-rule:nonzero;fill:rgb(100%,72.156863%,72.156863%);fill-opacity:1;" d="M 130.703125 144.007812 L 127.675781 142.847656 L 129.898438 128.015625 L 134.375 129.730469 Z M 130.703125 144.007812 "/>
<path style=" stroke:none;fill-rule:nonzero;fill:rgb(18.431373%,18.039216%,25.490196%);fill-opacity:1;" d="M 125.78125 140.957031 L 131.625 143.199219 L 130.472656 147.695312 L 120.945312 144.042969 C 121.582031 141.558594 123.75 140.179688 125.78125 140.957031 Z M 125.78125 140.957031 "/>
<path style=" stroke:none;fill-rule:nonzero;fill:rgb(18.431373%,18.039216%,25.490196%);fill-opacity:1;" d="M 131.738281 138.035156 C 131.597656 138.035156 131.460938 138.007812 131.332031 137.945312 L 128.992188 136.875 C 128.453125 136.625 128.140625 135.925781 128.265625 135.234375 C 128.851562 132.003906 130.859375 121.003906 131.957031 115.105469 C 133.257812 108.105469 152.257812 106.804688 153.0625 106.753906 L 153.128906 106.75 L 155.265625 110.027344 C 156.039062 113.058594 155.792969 115.425781 154.539062 117.058594 C 150.878906 121.820312 139.945312 118.863281 138.640625 118.488281 L 132.832031 137.121094 C 132.65625 137.671875 132.222656 138.035156 131.738281 138.035156 Z M 131.738281 138.035156 "/>
<path style=" stroke:none;fill-rule:nonzero;fill:rgb(18.431373%,18.039216%,25.490196%);fill-opacity:1;" d="M 135.105469 140.253906 C 134.96875 140.25 134.828125 140.222656 134.699219 140.160156 L 132.363281 139.089844 C 131.820312 138.839844 131.511719 138.144531 131.632812 137.449219 C 132.222656 134.21875 134.226562 123.21875 135.324219 117.320312 C 136.628906 110.320312 155.625 109.019531 156.433594 108.96875 L 156.5 108.964844 L 158.636719 112.242188 C 159.40625 115.277344 159.164062 117.640625 157.910156 119.273438 C 154.246094 124.035156 143.3125 121.078125 142.007812 120.703125 L 136.199219 139.335938 C 136.023438 139.886719 135.589844 140.25 135.105469 140.253906 Z M 135.105469 140.253906 "/>
<path style=" stroke:none;fill-rule:nonzero;fill:rgb(100%,72.156863%,72.156863%);fill-opacity:1;" d="M 128.34375 94.675781 C 128.429688 94.816406 128.507812 94.964844 128.574219 95.121094 L 141.355469 96.765625 L 143.195312 93.683594 L 147.363281 96.464844 L 143.75 103.941406 L 128.078125 99.0625 C 127.265625 100.023438 126.054688 100.277344 125.027344 99.691406 C 124.003906 99.109375 123.382812 97.8125 123.464844 96.433594 C 123.550781 95.058594 124.324219 93.886719 125.410156 93.496094 C 126.492188 93.105469 127.664062 93.574219 128.34375 94.675781 Z M 128.34375 94.675781 "/>
<path style=" stroke:none;fill-rule:nonzero;fill:rgb(31.372549%,37.254902%,59.607843%);fill-opacity:1;" d="M 158.042969 113.5 C 157.859375 113.5 157.675781 113.445312 157.511719 113.339844 C 154.957031 111.753906 149.980469 109.003906 145.367188 108.429688 C 145.046875 108.390625 144.753906 108.191406 144.5625 107.875 C 144.367188 107.558594 144.289062 107.15625 144.347656 106.765625 C 144.765625 103.949219 145.71875 96.78125 145.597656 91.039062 C 145.523438 87.398438 147.519531 84.183594 150.410156 83.292969 C 151.253906 83.023438 152.113281 82.816406 152.980469 82.675781 C 155 82.363281 157.019531 83.238281 158.425781 85.03125 C 159.832031 86.824219 160.460938 89.328125 160.121094 91.777344 C 159.296875 97.730469 158.46875 106.046875 159.1875 111.851562 C 159.257812 112.382812 159.074219 112.914062 158.71875 113.226562 C 158.523438 113.402344 158.285156 113.5 158.042969 113.5 Z M 158.042969 113.5 "/>
<path style=" stroke:none;fill-rule:nonzero;fill:rgb(31.372549%,37.254902%,59.607843%);fill-opacity:1;" d="M 145.832031 98.355469 C 145.671875 98.355469 145.515625 98.316406 145.371094 98.238281 L 142.039062 96.476562 C 141.449219 96.164062 141.179688 95.328125 141.433594 94.605469 L 144.007812 87.347656 C 144.660156 85.5 146.414062 84.648438 147.925781 85.449219 C 149.4375 86.246094 150.132812 88.390625 149.476562 90.238281 L 146.902344 97.496094 C 146.71875 98.019531 146.296875 98.355469 145.832031 98.355469 Z M 145.832031 98.355469 "/>
<path style=" stroke:none;fill-rule:nonzero;fill:rgb(100%,72.156863%,72.156863%);fill-opacity:1;" d="M 159.816406 72.433594 C 159.816406 76.726562 156.96875 80.207031 153.453125 80.207031 C 149.9375 80.207031 147.089844 76.726562 147.089844 72.433594 C 147.089844 68.140625 149.9375 64.660156 153.453125 64.660156 C 156.96875 64.660156 159.816406 68.140625 159.816406 72.433594 Z M 159.816406 72.433594 "/>
<path style=" stroke:none;fill-rule:nonzero;fill:rgb(18.431373%,18.039216%,25.490196%);fill-opacity:1;" d="M 146.976562 68.613281 C 149.988281 70.863281 153.386719 72.230469 156.90625 72.613281 L 155.859375 71.078125 C 156.621094 71.421875 157.421875 71.617188 158.234375 71.65625 C 159.046875 71.640625 159.894531 71.257812 160.355469 70.441406 C 160.773438 69.621094 160.832031 68.601562 160.519531 67.710938 C 160.199219 66.839844 159.703125 66.082031 159.074219 65.511719 C 156.820312 63.328125 153.820312 62.675781 151.082031 63.765625 C 150.160156 64.101562 149.332031 64.75 148.695312 65.636719 C 148.09375 66.542969 146.933594 67.355469 147.242188 68.460938 Z M 146.976562 68.613281 "/>
<path style=" stroke:none;fill-rule:nonzero;fill:rgb(18.431373%,18.039216%,25.490196%);fill-opacity:1;" d="M 154.523438 62.34375 C 152.515625 59.855469 150.085938 57.9375 147.40625 56.722656 C 145.6875 55.945312 143.816406 55.464844 142.015625 55.90625 C 140.21875 56.347656 138.519531 57.867188 138.015625 60.023438 C 137.605469 61.785156 138.027344 63.679688 138.664062 65.339844 C 139.300781 67 140.152344 68.539062 140.667969 70.257812 C 141.734375 73.824219 141.253906 77.808594 139.386719 80.847656 C 137.519531 83.882812 134.523438 85.5625 131.421875 85.308594 C 133.1875 85.597656 134.816406 86.613281 136.542969 87.152344 C 138.269531 87.691406 140.308594 87.65625 141.59375 86.144531 C 142.949219 84.546875 142.976562 81.945312 142.910156 79.644531 L 142.617188 69.375 C 142.570312 67.632812 142.527344 65.828125 143.042969 64.199219 C 143.558594 62.570312 144.78125 61.144531 146.210938 61.160156 C 147.296875 61.171875 148.253906 61.972656 149.125 62.761719 C 149.992188 63.554688 150.914062 64.398438 151.992188 64.515625 C 153.070312 64.632812 154.304688 63.65625 154.222656 62.335938 "/>
<path style=" stroke:none;fill-rule:nonzero;fill:rgb(90.196078%,90.196078%,90.196078%);fill-opacity:1;" d="M 124.941406 88.953125 L 139.59375 89.375 L 141.71875 108.503906 L 128.183594 108.875 Z M 124.941406 88.953125 "/>
<path style=" stroke:none;fill-rule:nonzero;fill:rgb(100%,72.156863%,72.156863%);fill-opacity:1;" d="M 140.523438 94.042969 C 140.609375 94.183594 140.6875 94.332031 140.753906 94.488281 L 153.53125 96.132812 L 155.371094 93.050781 L 159.539062 95.832031 L 155.929688 103.308594 L 140.253906 98.429688 C 139.445312 99.390625 138.230469 99.644531 137.207031 99.058594 C 136.183594 98.476562 135.558594 97.179688 135.644531 95.800781 C 135.730469 94.425781 136.503906 93.253906 137.585938 92.863281 C 138.671875 92.472656 139.839844 92.941406 140.523438 94.042969 Z M 140.523438 94.042969 "/>
<path style=" stroke:none;fill-rule:nonzero;fill:rgb(31.372549%,37.254902%,59.607843%);fill-opacity:1;" d="M 158.011719 98.671875 C 157.851562 98.671875 157.695312 98.632812 157.546875 98.554688 L 154.21875 96.796875 C 153.628906 96.480469 153.359375 95.644531 153.613281 94.921875 L 156.1875 87.664062 C 156.839844 85.816406 158.59375 84.964844 160.105469 85.765625 C 161.617188 86.5625 162.308594 88.707031 161.65625 90.554688 L 159.082031 97.8125 C 158.894531 98.335938 158.476562 98.671875 158.011719 98.671875 Z M 158.011719 98.671875 "/>
<path style=" stroke:none;fill-rule:nonzero;fill:rgb(24.705882%,23.921569%,33.72549%);fill-opacity:1;" d="M 127.886719 98.570312 L 24.761719 98.570312 C 23.832031 98.570312 23.078125 99.492188 23.078125 100.628906 C 23.078125 101.761719 23.832031 102.683594 24.761719 102.683594 L 27.742188 102.683594 L 27.742188 147.460938 C 27.742188 148.597656 28.496094 149.519531 29.425781 149.519531 C 30.355469 149.519531 31.109375 148.597656 31.109375 147.460938 L 31.109375 106.636719 L 49.992188 148.433594 C 50.457031 149.414062 51.488281 149.75 52.292969 149.183594 C 53.097656 148.617188 53.371094 147.359375 52.910156 146.375 L 33.171875 102.683594 L 123.355469 102.683594 L 123.355469 102.710938 L 103.628906 146.375 C 103.164062 147.359375 103.4375 148.617188 104.246094 149.1875 C 105.050781 149.753906 106.082031 149.417969 106.546875 148.433594 L 123.355469 111.226562 L 123.355469 147.460938 C 123.355469 148.597656 124.109375 149.519531 125.039062 149.519531 C 125.96875 149.519531 126.722656 148.597656 126.722656 147.460938 L 126.722656 103.769531 L 127.210938 102.683594 L 127.886719 102.683594 C 128.820312 102.683594 129.574219 101.761719 129.574219 100.628906 C 129.574219 99.492188 128.820312 98.570312 127.886719 98.570312 Z M 127.886719 98.570312 "/>
<path style=" stroke:none;fill-rule:nonzero;fill:rgb(24.705882%,23.921569%,33.72549%);fill-opacity:1;" d="M 191.605469 149.984375 L 0.308594 149.984375 C 0.136719 149.984375 0 149.816406 0 149.605469 C 0 149.398438 0.136719 149.230469 0.308594 149.230469 L 191.605469 149.230469 C 191.777344 149.230469 191.914062 149.398438 191.914062 149.605469 C 191.914062 149.816406 191.777344 149.984375 191.605469 149.984375 Z M 191.605469 149.984375 "/>
</g>
</svg>
