<?xml version="1.0" encoding="UTF-8"?>
<svg xmlns="http://www.w3.org/2000/svg" xmlns:xlink="http://www.w3.org/1999/xlink" width="427pt" height="300pt" viewBox="0 0 427 300" version="1.1">
<defs>
<filter id="alpha" filterUnits="objectBoundingBox" x="0%" y="0%" width="100%" height="100%">
  <feColorMatrix type="matrix" in="SourceGraphic" values="0 0 0 0 1 0 0 0 0 1 0 0 0 0 1 0 0 0 1 0"/>
</filter>
<mask id="mask0">
  <g filter="url(#alpha)">
<rect x="0" y="0" width="427" height="300" style="fill:rgb(0%,0%,0%);fill-opacity:0.2;stroke:none;"/>
  </g>
</mask>
<clipPath id="clip1">
  <rect x="0" y="0" width="427" height="300"/>
</clipPath>
<g id="surface5" clip-path="url(#clip1)">
<path style=" stroke:none;fill-rule:nonzero;fill:rgb(0%,0%,0%);fill-opacity:1;" d="M 389.144531 190.71875 L 393.003906 207.050781 L 387.425781 220.804688 L 391.289062 207.480469 Z M 389.144531 190.71875 "/>
</g>
</defs>
<g id="surface1">
<path style=" stroke:none;fill-rule:nonzero;fill:rgb(94.901961%,94.901961%,94.901961%);fill-opacity:1;" d="M 348.761719 188.058594 L 73.75 188.058594 C 69.839844 188.054688 66.671875 184.882812 66.667969 180.964844 L 66.667969 11.128906 C 66.671875 8.261719 68.992188 5.9375 71.855469 5.933594 L 350.566406 5.933594 C 353.480469 5.9375 355.839844 8.300781 355.84375 11.21875 L 355.84375 180.964844 C 355.839844 184.882812 352.671875 188.054688 348.761719 188.058594 Z M 348.761719 188.058594 "/>
<path style=" stroke:none;fill-rule:nonzero;fill:rgb(100%,100%,100%);fill-opacity:1;" d="M 338.730469 178.015625 L 82.425781 178.015625 C 78.667969 178.015625 75.609375 175.148438 75.609375 171.625 L 75.609375 23.726562 C 75.609375 21.113281 77.875 18.988281 80.660156 18.988281 L 340.410156 18.988281 C 343.242188 18.988281 345.542969 21.148438 345.542969 23.804688 L 345.542969 171.625 C 345.542969 175.148438 342.488281 178.015625 338.730469 178.015625 Z M 338.730469 178.015625 "/>
<path style=" stroke:none;fill-rule:nonzero;fill:rgb(80%,80%,80%);fill-opacity:1;" d="M 355.746094 10.722656 L 66.570312 10.722656 L 66.570312 7.113281 C 66.574219 3.183594 69.753906 0.00390625 73.675781 0 L 348.636719 0 C 352.558594 0.00390625 355.738281 3.183594 355.746094 7.113281 Z M 355.746094 10.722656 "/>
<path style=" stroke:none;fill-rule:nonzero;fill:rgb(100%,100%,100%);fill-opacity:1;" d="M 81.320312 5.371094 C 81.320312 6.390625 80.5 7.214844 79.484375 7.214844 C 78.46875 7.214844 77.644531 6.390625 77.644531 5.371094 C 77.644531 4.355469 78.46875 3.53125 79.484375 3.53125 C 80.5 3.53125 81.320312 4.355469 81.320312 5.371094 Z M 81.320312 5.371094 "/>
<path style=" stroke:none;fill-rule:nonzero;fill:rgb(100%,100%,100%);fill-opacity:1;" d="M 88.300781 5.371094 C 88.300781 6.390625 87.476562 7.214844 86.460938 7.214844 C 85.445312 7.214844 84.621094 6.390625 84.621094 5.371094 C 84.621094 4.355469 85.445312 3.53125 86.460938 3.53125 C 87.476562 3.53125 88.300781 4.355469 88.300781 5.371094 Z M 88.300781 5.371094 "/>
<path style=" stroke:none;fill-rule:nonzero;fill:rgb(100%,100%,100%);fill-opacity:1;" d="M 95.277344 5.371094 C 95.277344 6.390625 94.453125 7.214844 93.4375 7.214844 C 92.421875 7.214844 91.601562 6.390625 91.601562 5.371094 C 91.601562 4.355469 92.421875 3.53125 93.4375 3.53125 C 94.453125 3.53125 95.277344 4.355469 95.277344 5.371094 Z M 95.277344 5.371094 "/>
<path style=" stroke:none;fill-rule:nonzero;fill:rgb(80%,80%,80%);fill-opacity:1;" d="M 310.519531 153.210938 L 111.894531 153.210938 C 107.746094 153.207031 104.386719 149.839844 104.382812 145.6875 L 104.382812 49.777344 C 104.386719 46.671875 106.898438 44.15625 110 44.152344 L 312.320312 44.152344 C 315.472656 44.15625 318.023438 46.710938 318.027344 49.867188 L 318.027344 145.6875 C 318.023438 149.839844 314.664062 153.207031 310.519531 153.210938 Z M 110 45.011719 C 107.371094 45.015625 105.242188 47.148438 105.242188 49.777344 L 105.242188 145.6875 C 105.246094 149.367188 108.222656 152.347656 111.894531 152.351562 L 310.519531 152.351562 C 314.191406 152.347656 317.164062 149.367188 317.171875 145.6875 L 317.171875 49.867188 C 317.167969 47.1875 315 45.015625 312.320312 45.011719 Z M 110 45.011719 "/>
<path style=" stroke:none;fill-rule:nonzero;fill:rgb(94.901961%,94.901961%,94.901961%);fill-opacity:1;" d="M 118.757812 145.6875 L 303.652344 145.6875 C 307.445312 145.6875 310.519531 142.609375 310.519531 138.8125 L 310.519531 58.632812 C 310.519531 54.835938 307.445312 51.757812 303.652344 51.757812 L 118.757812 51.757812 C 114.96875 51.757812 111.894531 54.835938 111.894531 58.632812 L 111.894531 138.8125 C 111.894531 142.609375 114.96875 145.6875 118.757812 145.6875 Z M 118.757812 145.6875 "/>
<path style=" stroke:none;fill-rule:nonzero;fill:rgb(80%,80%,80%);fill-opacity:1;" d="M 143.613281 71.214844 C 143.613281 73.351562 141.886719 75.082031 139.753906 75.082031 C 137.621094 75.082031 135.890625 73.351562 135.890625 71.214844 C 135.890625 69.078125 137.621094 67.347656 139.753906 67.347656 C 141.886719 67.347656 143.613281 69.078125 143.613281 71.214844 Z M 143.613281 71.214844 "/>
<path style=" stroke:none;fill-rule:nonzero;fill:rgb(80%,80%,80%);fill-opacity:1;" d="M 143.613281 85.828125 C 143.613281 87.964844 141.886719 89.695312 139.753906 89.695312 C 137.621094 89.695312 135.890625 87.964844 135.890625 85.828125 C 135.890625 83.691406 137.621094 81.960938 139.753906 81.960938 C 141.886719 81.960938 143.613281 83.691406 143.613281 85.828125 Z M 143.613281 85.828125 "/>
<path style=" stroke:none;fill-rule:nonzero;fill:rgb(80%,80%,80%);fill-opacity:1;" d="M 143.613281 100.441406 C 143.613281 102.578125 141.886719 104.308594 139.753906 104.308594 C 137.621094 104.308594 135.890625 102.578125 135.890625 100.441406 C 135.890625 98.304688 137.621094 96.574219 139.753906 96.574219 C 141.886719 96.574219 143.613281 98.304688 143.613281 100.441406 Z M 143.613281 100.441406 "/>
<path style=" stroke:none;fill-rule:nonzero;fill:rgb(80%,80%,80%);fill-opacity:1;" d="M 143.613281 115.054688 C 143.613281 117.191406 141.886719 118.921875 139.753906 118.921875 C 137.621094 118.921875 135.890625 117.191406 135.890625 115.054688 C 135.890625 112.917969 137.621094 111.1875 139.753906 111.1875 C 141.886719 111.1875 143.613281 112.917969 143.613281 115.054688 Z M 143.613281 115.054688 "/>
<path style=" stroke:none;fill-rule:nonzero;fill:rgb(80%,80%,80%);fill-opacity:1;" d="M 286.089844 71.644531 L 159.0625 71.644531 C 158.828125 71.644531 158.636719 71.453125 158.636719 71.214844 C 158.636719 70.976562 158.828125 70.785156 159.0625 70.785156 L 286.089844 70.785156 C 286.328125 70.785156 286.519531 70.976562 286.519531 71.214844 C 286.519531 71.453125 286.328125 71.644531 286.089844 71.644531 Z M 286.089844 71.644531 "/>
<path style=" stroke:none;fill-rule:nonzero;fill:rgb(80%,80%,80%);fill-opacity:1;" d="M 286.089844 86.257812 L 159.0625 86.257812 C 158.828125 86.257812 158.636719 86.066406 158.636719 85.828125 C 158.636719 85.589844 158.828125 85.398438 159.0625 85.398438 L 286.089844 85.398438 C 286.328125 85.398438 286.519531 85.589844 286.519531 85.828125 C 286.519531 86.066406 286.328125 86.257812 286.089844 86.257812 Z M 286.089844 86.257812 "/>
<path style=" stroke:none;fill-rule:nonzero;fill:rgb(80%,80%,80%);fill-opacity:1;" d="M 286.089844 100.871094 L 159.0625 100.871094 C 158.828125 100.871094 158.636719 100.679688 158.636719 100.441406 C 158.636719 100.203125 158.828125 100.011719 159.0625 100.011719 L 286.089844 100.011719 C 286.328125 100.011719 286.519531 100.203125 286.519531 100.441406 C 286.519531 100.679688 286.328125 100.871094 286.089844 100.871094 Z M 286.089844 100.871094 "/>
<path style=" stroke:none;fill-rule:nonzero;fill:rgb(80%,80%,80%);fill-opacity:1;" d="M 286.089844 115.484375 L 159.0625 115.484375 C 158.828125 115.484375 158.636719 115.292969 158.636719 115.054688 C 158.636719 114.816406 158.828125 114.625 159.0625 114.625 L 286.089844 114.625 C 286.328125 114.625 286.519531 114.816406 286.519531 115.054688 C 286.519531 115.292969 286.328125 115.484375 286.089844 115.484375 Z M 286.089844 115.484375 "/>
<path style=" stroke:none;fill-rule:nonzero;fill:rgb(31.372549%,37.254902%,59.607843%);fill-opacity:1;" d="M 183.097656 130.097656 L 170.652344 130.097656 C 169.46875 130.097656 168.507812 129.136719 168.503906 127.949219 L 168.503906 116.34375 C 168.507812 115.160156 169.46875 114.195312 170.652344 114.195312 L 183.097656 114.195312 C 184.28125 114.195312 185.242188 115.160156 185.242188 116.34375 L 185.242188 127.949219 C 185.242188 129.136719 184.28125 130.097656 183.097656 130.097656 Z M 183.097656 130.097656 "/>
<path style=" stroke:none;fill-rule:nonzero;fill:rgb(31.372549%,37.254902%,59.607843%);fill-opacity:1;" d="M 210.992188 130.097656 L 198.546875 130.097656 C 197.359375 130.097656 196.402344 129.136719 196.398438 127.949219 L 196.398438 101.730469 C 196.402344 100.546875 197.359375 99.582031 198.546875 99.582031 L 210.992188 99.582031 C 212.175781 99.582031 213.136719 100.546875 213.136719 101.730469 L 213.136719 127.949219 C 213.136719 129.136719 212.175781 130.097656 210.992188 130.097656 Z M 210.992188 130.097656 "/>
<path style=" stroke:none;fill-rule:nonzero;fill:rgb(31.372549%,37.254902%,59.607843%);fill-opacity:1;" d="M 239.316406 130.097656 L 226.871094 130.097656 C 225.683594 130.097656 224.726562 129.136719 224.722656 127.949219 L 224.722656 87.117188 C 224.726562 85.933594 225.683594 84.96875 226.871094 84.96875 L 239.316406 84.96875 C 240.5 84.96875 241.460938 85.933594 241.460938 87.117188 L 241.460938 127.949219 C 241.460938 129.136719 240.5 130.097656 239.316406 130.097656 Z M 239.316406 130.097656 "/>
<path style=" stroke:none;fill-rule:nonzero;fill:rgb(31.372549%,37.254902%,59.607843%);fill-opacity:1;" d="M 268.496094 130.097656 L 256.050781 130.097656 C 254.867188 130.097656 253.90625 129.136719 253.90625 127.949219 L 253.90625 72.933594 C 253.90625 71.75 254.867188 70.789062 256.050781 70.785156 L 268.496094 70.785156 C 269.679688 70.789062 270.640625 71.75 270.640625 72.933594 L 270.640625 127.949219 C 270.640625 129.136719 269.679688 130.097656 268.496094 130.097656 Z M 268.496094 130.097656 "/>
<path style=" stroke:none;fill-rule:nonzero;fill:rgb(24.705882%,23.921569%,33.72549%);fill-opacity:1;" d="M 286.089844 130.097656 L 159.0625 130.097656 C 158.828125 130.097656 158.636719 129.90625 158.636719 129.667969 C 158.636719 129.429688 158.828125 129.238281 159.0625 129.238281 L 286.089844 129.238281 C 286.328125 129.238281 286.519531 129.429688 286.519531 129.667969 C 286.519531 129.90625 286.328125 130.097656 286.089844 130.097656 Z M 286.089844 130.097656 "/>
<path style=" stroke:none;fill-rule:nonzero;fill:rgb(100%,72.156863%,72.156863%);fill-opacity:1;" d="M 341.902344 210.277344 C 342.605469 209.210938 343.746094 208.507812 345.011719 208.363281 C 346.28125 208.21875 347.550781 208.644531 348.476562 209.527344 L 362.101562 202.484375 L 361.253906 210.417969 L 348.445312 215.890625 C 346.828125 217.382812 344.351562 217.425781 342.683594 215.996094 C 341.011719 214.5625 340.675781 212.105469 341.902344 210.277344 Z M 341.902344 210.277344 "/>
<path style=" stroke:none;fill-rule:nonzero;fill:rgb(24.705882%,23.921569%,33.72549%);fill-opacity:1;" d="M 353.625 213.234375 C 353.316406 212.992188 353.089844 212.660156 352.972656 212.285156 L 351.890625 208.777344 C 351.648438 208 351.921875 207.15625 352.570312 206.664062 L 363.613281 198.308594 L 375.578125 176.082031 C 377.683594 173.363281 381.59375 172.871094 384.308594 174.980469 C 387.019531 177.09375 387.511719 181.007812 385.40625 183.726562 L 378.597656 198.109375 C 376.535156 202.476562 372.957031 205.941406 368.53125 207.863281 L 355.585938 213.488281 C 355.082031 213.707031 354.511719 213.699219 354.011719 213.472656 C 353.875 213.410156 353.746094 213.328125 353.625 213.234375 Z M 353.625 213.234375 "/>
<path style=" stroke:none;fill-rule:nonzero;fill:rgb(100%,72.156863%,72.156863%);fill-opacity:1;" d="M 396.246094 156.25 C 396.246094 162.078125 391.527344 166.804688 385.707031 166.804688 C 379.882812 166.804688 375.164062 162.078125 375.164062 156.25 C 375.164062 150.417969 379.882812 145.695312 385.707031 145.695312 C 391.527344 145.695312 396.246094 150.417969 396.246094 156.25 Z M 396.246094 156.25 "/>
<path style=" stroke:none;fill-rule:nonzero;fill:rgb(100%,72.156863%,72.156863%);fill-opacity:1;" d="M 381.429688 294.730469 L 376.167969 294.730469 L 373.667969 274.40625 L 381.433594 274.40625 Z M 381.429688 294.730469 "/>
<path style=" stroke:none;fill-rule:nonzero;fill:rgb(18.431373%,18.039216%,25.490196%);fill-opacity:1;" d="M 372.410156 293.222656 L 382.558594 293.222656 L 382.558594 299.621094 L 366.023438 299.621094 C 366.023438 296.085938 368.882812 293.222656 372.410156 293.222656 Z M 372.410156 293.222656 "/>
<path style=" stroke:none;fill-rule:nonzero;fill:rgb(100%,72.156863%,72.156863%);fill-opacity:1;" d="M 398.59375 294.730469 L 393.335938 294.730469 L 390.832031 274.40625 L 398.597656 274.40625 Z M 398.59375 294.730469 "/>
<path style=" stroke:none;fill-rule:nonzero;fill:rgb(18.431373%,18.039216%,25.490196%);fill-opacity:1;" d="M 389.578125 293.222656 L 399.722656 293.222656 L 399.722656 299.621094 L 383.1875 299.621094 C 383.1875 296.089844 386.046875 293.222656 389.578125 293.222656 Z M 389.578125 293.222656 "/>
<path style=" stroke:none;fill-rule:nonzero;fill:rgb(18.431373%,18.039216%,25.490196%);fill-opacity:1;" d="M 398.980469 289.574219 L 392.816406 289.574219 C 391.941406 289.570312 391.179688 288.984375 390.949219 288.140625 L 382.074219 255.175781 C 382.046875 255.070312 381.941406 255 381.832031 255.019531 C 381.726562 255.039062 381.648438 255.132812 381.652344 255.246094 L 383.445312 286.507812 C 383.480469 287.066406 383.265625 287.613281 382.867188 288.003906 C 382.464844 288.394531 381.914062 288.59375 381.359375 288.546875 L 374.429688 287.96875 C 373.511719 287.890625 372.777344 287.179688 372.671875 286.265625 L 366.359375 220.613281 L 368.800781 222.082031 L 391.6875 218.191406 L 400.894531 287.382812 C 400.96875 287.9375 400.800781 288.492188 400.433594 288.914062 C 400.066406 289.332031 399.535156 289.574219 398.980469 289.574219 Z M 398.980469 289.574219 "/>
<path style=" stroke:none;fill-rule:nonzero;fill:rgb(24.705882%,23.921569%,33.72549%);fill-opacity:1;" d="M 374.011719 227.542969 C 371.488281 227.523438 369.015625 226.828125 366.847656 225.523438 C 366.167969 225.121094 365.800781 224.335938 365.933594 223.550781 C 366.738281 218.617188 370.945312 193.292969 374.777344 179.484375 C 376.335938 173.863281 379.785156 170.835938 385.027344 170.484375 C 392.695312 169.980469 399.511719 175.988281 400.21875 183.894531 C 401.472656 197.839844 396.386719 217.65625 394.140625 225.527344 C 393.964844 226.144531 393.492188 226.632812 392.882812 226.832031 C 392.273438 227.03125 391.605469 226.914062 391.101562 226.519531 L 386.523438 222.953125 C 385.945312 222.507812 385.128906 222.542969 384.585938 223.035156 C 380.730469 226.480469 377.066406 227.542969 374.011719 227.542969 Z M 374.011719 227.542969 "/>
<use xlink:href="#surface5" mask="url(#mask0)"/>
<path style=" stroke:none;fill-rule:nonzero;fill:rgb(18.431373%,18.039216%,25.490196%);fill-opacity:1;" d="M 391.71875 164.929688 C 392.65625 164.949219 393.589844 164.78125 394.460938 164.433594 C 394.84375 164.285156 395.242188 164.164062 395.625 164.015625 C 399.007812 162.707031 401.238281 159.101562 401.316406 155.46875 C 401.398438 151.839844 399.519531 148.3125 396.730469 145.992188 C 393.945312 143.667969 390.332031 142.476562 386.71875 142.199219 C 382.824219 141.902344 378.4375 142.894531 376.261719 146.140625 C 375.683594 147.003906 375.277344 148.054688 375.621094 149.097656 C 375.722656 149.414062 375.90625 149.695312 376.152344 149.917969 C 377.125 150.785156 378.09375 150.132812 379.085938 150.074219 C 380.445312 149.996094 381.667969 151.101562 382.109375 152.394531 C 382.546875 153.6875 382.355469 155.109375 382 156.429688 C 381.730469 157.222656 381.558594 158.046875 381.492188 158.882812 C 381.433594 159.738281 381.820312 160.558594 382.511719 161.054688 C 383.363281 161.570312 384.480469 161.273438 385.332031 160.757812 C 386.183594 160.246094 386.921875 159.53125 387.839844 159.152344 C 388.757812 158.773438 389.996094 158.855469 390.53125 159.695312 C 390.699219 160 390.816406 160.335938 390.871094 160.679688 C 391.351562 162.871094 391.238281 162.742188 391.71875 164.929688 Z M 391.71875 164.929688 "/>
<path style=" stroke:none;fill-rule:nonzero;fill:rgb(90.196078%,90.196078%,90.196078%);fill-opacity:1;" d="M 375.382812 279.984375 L 309.382812 256.964844 C 307.023438 256.140625 305.777344 253.558594 306.597656 251.195312 L 323.746094 201.871094 C 324.351562 200.140625 326.238281 199.226562 327.96875 199.828125 L 396.199219 223.625 C 397.957031 224.242188 398.886719 226.164062 398.277344 227.925781 L 381.144531 277.195312 C 380.320312 279.558594 377.742188 280.804688 375.382812 279.984375 Z M 375.382812 279.984375 "/>
<path style=" stroke:none;fill-rule:nonzero;fill:rgb(100%,100%,100%);fill-opacity:1;" d="M 315.015625 254.128906 L 372.726562 274.261719 C 375.015625 275.058594 377.515625 273.847656 378.3125 271.554688 L 392.164062 231.726562 C 392.960938 229.433594 391.75 226.929688 389.464844 226.132812 L 331.75 206 C 329.460938 205.203125 326.960938 206.414062 326.164062 208.707031 L 312.3125 248.535156 C 311.515625 250.828125 312.726562 253.332031 315.015625 254.128906 Z M 315.015625 254.128906 "/>
<path style=" stroke:none;fill-rule:nonzero;fill:rgb(31.372549%,37.254902%,59.607843%);fill-opacity:1;" d="M 329.507812 226.148438 L 326.648438 225.148438 C 326.324219 225.039062 326.15625 224.683594 326.265625 224.359375 L 327.261719 221.5 C 327.375 221.175781 327.726562 221.003906 328.050781 221.117188 L 330.910156 222.113281 C 331.230469 222.226562 331.402344 222.578125 331.289062 222.902344 L 330.292969 225.765625 C 330.183594 226.089844 329.828125 226.257812 329.507812 226.148438 Z M 329.507812 226.148438 "/>
<path style=" stroke:none;fill-rule:nonzero;fill:rgb(24.705882%,23.921569%,33.72549%);fill-opacity:1;" d="M 326.925781 233.5625 L 324.070312 232.566406 C 323.746094 232.453125 323.578125 232.101562 323.6875 231.777344 L 324.683594 228.914062 C 324.796875 228.59375 325.148438 228.421875 325.472656 228.535156 L 328.332031 229.53125 C 328.652344 229.644531 328.824219 229.996094 328.710938 230.320312 L 327.714844 233.183594 C 327.601562 233.503906 327.25 233.675781 326.925781 233.5625 Z M 326.925781 233.5625 "/>
<path style=" stroke:none;fill-rule:nonzero;fill:rgb(80%,80%,80%);fill-opacity:1;" d="M 324.347656 240.980469 L 321.492188 239.984375 C 321.167969 239.871094 320.996094 239.519531 321.109375 239.195312 L 322.105469 236.332031 C 322.21875 236.007812 322.570312 235.839844 322.894531 235.949219 L 325.75 236.945312 C 326.074219 237.058594 326.246094 237.414062 326.132812 237.738281 L 325.136719 240.597656 C 325.023438 240.921875 324.671875 241.09375 324.347656 240.980469 Z M 324.347656 240.980469 "/>
<path style=" stroke:none;fill-rule:nonzero;fill:rgb(80%,80%,80%);fill-opacity:1;" d="M 348.710938 231.242188 L 334.941406 226.4375 C 334.730469 226.367188 334.578125 226.1875 334.535156 225.96875 C 334.492188 225.75 334.570312 225.527344 334.738281 225.382812 C 334.90625 225.238281 335.140625 225.195312 335.347656 225.265625 L 349.121094 230.070312 C 349.328125 230.144531 349.484375 230.320312 349.527344 230.539062 C 349.566406 230.757812 349.488281 230.980469 349.320312 231.125 C 349.152344 231.269531 348.921875 231.316406 348.710938 231.242188 Z M 348.710938 231.242188 "/>
<path style=" stroke:none;fill-rule:nonzero;fill:rgb(80%,80%,80%);fill-opacity:1;" d="M 346.132812 238.65625 L 332.363281 233.855469 C 332.039062 233.742188 331.867188 233.386719 331.980469 233.066406 C 332.09375 232.742188 332.445312 232.570312 332.769531 232.683594 L 346.539062 237.488281 C 346.75 237.558594 346.90625 237.738281 346.945312 237.957031 C 346.988281 238.175781 346.910156 238.398438 346.742188 238.542969 C 346.574219 238.6875 346.34375 238.730469 346.132812 238.65625 Z M 346.132812 238.65625 "/>
<path style=" stroke:none;fill-rule:nonzero;fill:rgb(80%,80%,80%);fill-opacity:1;" d="M 343.554688 246.074219 L 329.785156 241.269531 C 329.460938 241.160156 329.289062 240.804688 329.402344 240.480469 C 329.515625 240.160156 329.867188 239.988281 330.191406 240.101562 L 343.960938 244.902344 C 344.285156 245.015625 344.457031 245.371094 344.34375 245.691406 C 344.230469 246.015625 343.878906 246.1875 343.554688 246.074219 Z M 343.554688 246.074219 "/>
<path style=" stroke:none;fill-rule:nonzero;fill:rgb(31.372549%,37.254902%,59.607843%);fill-opacity:1;" d="M 380.203125 250.09375 C 380.304688 249.851562 380.398438 249.605469 380.484375 249.355469 C 382.84375 242.578125 379.265625 235.171875 372.496094 232.808594 L 367.972656 245.828125 Z M 380.203125 250.09375 "/>
<path style=" stroke:none;fill-rule:nonzero;fill:rgb(24.705882%,23.921569%,33.72549%);fill-opacity:1;" d="M 366.65625 246.617188 L 371.179688 233.601562 C 364.511719 231.273438 357.207031 234.71875 354.746094 241.351562 C 352.289062 247.984375 355.582031 255.371094 362.152344 257.964844 C 368.726562 260.5625 376.164062 257.414062 378.886719 250.886719 Z M 366.65625 246.617188 "/>
<path style=" stroke:none;fill-rule:nonzero;fill:rgb(100%,72.156863%,72.156863%);fill-opacity:1;" d="M 382.859375 227.945312 C 382.757812 226.671875 383.222656 225.414062 384.132812 224.515625 C 385.039062 223.617188 386.300781 223.171875 387.570312 223.292969 L 393.953125 209.328125 L 398.179688 216.09375 L 391.46875 228.320312 C 391.117188 230.492188 389.195312 232.058594 387 231.960938 C 384.800781 231.867188 383.023438 230.140625 382.859375 227.945312 Z M 382.859375 227.945312 "/>
<path style=" stroke:none;fill-rule:nonzero;fill:rgb(24.705882%,23.921569%,33.72549%);fill-opacity:1;" d="M 393.910156 223.027344 C 393.515625 223.027344 393.132812 222.90625 392.808594 222.683594 L 389.796875 220.59375 C 389.128906 220.128906 388.824219 219.296875 389.027344 218.507812 L 392.570312 205.105469 L 388.289062 180.226562 C 388.277344 177.996094 389.449219 175.933594 391.371094 174.808594 C 393.292969 173.683594 395.664062 173.671875 397.597656 174.777344 C 399.527344 175.882812 400.722656 177.9375 400.730469 180.164062 L 404.242188 195.691406 C 405.304688 200.402344 404.625 205.339844 402.328125 209.589844 L 395.609375 222.015625 C 395.347656 222.496094 394.890625 222.847656 394.359375 222.972656 C 394.210938 223.007812 394.0625 223.027344 393.910156 223.027344 Z M 393.910156 223.027344 "/>
<path style=" stroke:none;fill-rule:nonzero;fill:rgb(80%,80%,80%);fill-opacity:1;" d="M 426.570312 299.863281 L 345.03125 299.863281 C 344.796875 299.863281 344.605469 299.671875 344.605469 299.433594 C 344.605469 299.195312 344.796875 299.003906 345.03125 299.003906 L 426.570312 299.003906 C 426.808594 299.003906 427 299.195312 427 299.433594 C 427 299.671875 426.808594 299.863281 426.570312 299.863281 Z M 426.570312 299.863281 "/>
<path style=" stroke:none;fill-rule:nonzero;fill:rgb(62.745098%,38.039216%,41.568627%);fill-opacity:1;" d="M 210.511719 294.515625 L 215.773438 294.515625 L 218.277344 274.191406 L 210.511719 274.191406 Z M 210.511719 294.515625 "/>
<path style=" stroke:none;fill-rule:nonzero;fill:rgb(18.431373%,18.039216%,25.490196%);fill-opacity:1;" d="M 209.171875 292.796875 L 219.53125 292.792969 L 219.535156 292.792969 C 223.179688 292.792969 226.136719 295.753906 226.136719 299.40625 L 226.136719 299.621094 L 209.171875 299.625 Z M 209.171875 292.796875 "/>
<path style=" stroke:none;fill-rule:nonzero;fill:rgb(62.745098%,38.039216%,41.568627%);fill-opacity:1;" d="M 189.484375 294.515625 L 194.746094 294.515625 L 197.25 274.191406 L 189.484375 274.191406 Z M 189.484375 294.515625 "/>
<path style=" stroke:none;fill-rule:nonzero;fill:rgb(18.431373%,18.039216%,25.490196%);fill-opacity:1;" d="M 188.144531 292.796875 L 198.503906 292.792969 C 202.152344 292.792969 205.109375 295.753906 205.109375 299.40625 L 205.109375 299.621094 L 188.144531 299.625 Z M 188.144531 292.796875 "/>
<path style=" stroke:none;fill-rule:nonzero;fill:rgb(62.745098%,38.039216%,41.568627%);fill-opacity:1;" d="M 222.105469 143.25 C 222.105469 149.082031 217.386719 153.808594 211.5625 153.808594 C 205.742188 153.808594 201.023438 149.082031 201.023438 143.25 C 201.023438 137.421875 205.742188 132.695312 211.5625 132.695312 C 217.386719 132.695312 222.105469 137.421875 222.105469 143.25 Z M 222.105469 143.25 "/>
<path style=" stroke:none;fill-rule:nonzero;fill:rgb(18.431373%,18.039216%,25.490196%);fill-opacity:1;" d="M 218.652344 290.128906 L 208.886719 290.128906 C 208.371094 290.128906 207.878906 289.921875 207.515625 289.554688 C 207.152344 289.1875 206.949219 288.6875 206.957031 288.171875 L 207.523438 241.738281 C 207.527344 241.398438 207.265625 241.109375 206.925781 241.089844 C 206.582031 241.066406 206.285156 241.3125 206.242188 241.652344 L 200.558594 288.429688 C 200.441406 289.398438 199.617188 290.128906 198.644531 290.128906 L 188.785156 290.128906 C 188.246094 290.128906 187.734375 289.902344 187.367188 289.507812 C 187.003906 289.113281 186.820312 288.582031 186.859375 288.042969 L 193.371094 204.628906 L 193.546875 204.609375 L 224.714844 201.238281 L 220.582031 288.285156 C 220.53125 289.320312 219.683594 290.128906 218.652344 290.128906 Z M 218.652344 290.128906 "/>
<path style=" stroke:none;fill-rule:nonzero;fill:rgb(24.705882%,23.921569%,33.72549%);fill-opacity:1;" d="M 193.75 209.75 C 192.707031 209.75 191.855469 208.921875 191.824219 207.878906 C 191.65625 202.605469 191.363281 184.355469 194.753906 170.957031 C 196.652344 163.441406 203.238281 158.058594 210.972656 157.703125 C 218.574219 157.285156 225.585938 161.792969 228.375 168.886719 C 234.074219 183.371094 239.457031 201.226562 232.746094 204.027344 C 223.949219 207.699219 200.765625 209.332031 193.867188 209.746094 C 193.828125 209.75 193.789062 209.75 193.75 209.75 Z M 193.75 209.75 "/>
<path style=" stroke:none;fill-rule:nonzero;fill:rgb(62.745098%,38.039216%,41.568627%);fill-opacity:1;" d="M 234.035156 132.582031 C 234.199219 132.75 234.378906 132.910156 234.566406 133.050781 L 233.460938 154.335938 L 228.859375 156.699219 L 231.507812 164.117188 L 240.058594 160.734375 C 241.480469 160.171875 242.359375 158.742188 242.21875 157.21875 L 239.976562 133.074219 C 241.476562 131.949219 242.128906 130.015625 241.613281 128.210938 C 241.097656 126.410156 239.519531 125.113281 237.652344 124.960938 C 235.785156 124.804688 234.019531 125.824219 233.214844 127.519531 C 232.410156 129.210938 232.734375 131.226562 234.035156 132.582031 Z M 234.035156 132.582031 "/>
<path style=" stroke:none;fill-rule:nonzero;fill:rgb(24.705882%,23.921569%,33.72549%);fill-opacity:1;" d="M 233.550781 155.128906 L 236.785156 164.34375 C 236.972656 164.875 236.917969 165.460938 236.640625 165.949219 C 236.359375 166.4375 235.882812 166.777344 235.332031 166.886719 L 225.785156 168.738281 C 222.992188 169.703125 219.941406 168.222656 218.96875 165.429688 C 217.996094 162.632812 219.464844 159.574219 222.253906 158.59375 L 230.828125 154.0625 C 231.324219 153.800781 231.910156 153.765625 232.433594 153.972656 C 232.953125 154.175781 233.363281 154.597656 233.550781 155.128906 Z M 233.550781 155.128906 "/>
<path style=" stroke:none;fill-rule:nonzero;fill:rgb(62.745098%,38.039216%,41.568627%);fill-opacity:1;" d="M 188.378906 132.582031 C 188.210938 132.75 188.035156 132.910156 187.84375 133.050781 L 188.949219 154.335938 L 193.550781 156.699219 L 190.902344 164.117188 L 182.351562 160.734375 C 180.933594 160.171875 180.054688 158.742188 180.195312 157.21875 L 182.433594 133.074219 C 180.933594 131.949219 180.28125 130.015625 180.796875 128.210938 C 181.316406 126.410156 182.890625 125.113281 184.757812 124.960938 C 186.625 124.804688 188.390625 125.824219 189.195312 127.519531 C 190 129.210938 189.675781 131.226562 188.378906 132.582031 Z M 188.378906 132.582031 "/>
<path style=" stroke:none;fill-rule:nonzero;fill:rgb(24.705882%,23.921569%,33.72549%);fill-opacity:1;" d="M 189.980469 153.972656 C 190.503906 153.765625 191.089844 153.796875 191.585938 154.0625 L 200.15625 158.59375 C 202.945312 159.574219 204.414062 162.632812 203.441406 165.429688 C 202.46875 168.222656 199.421875 169.703125 196.625 168.738281 L 187.078125 166.886719 C 186.527344 166.777344 186.050781 166.4375 185.769531 165.949219 C 185.492188 165.460938 185.4375 164.875 185.625 164.34375 L 188.863281 155.128906 C 189.046875 154.597656 189.457031 154.175781 189.980469 153.972656 Z M 189.980469 153.972656 "/>
<path style=" stroke:none;fill-rule:nonzero;fill:rgb(18.431373%,18.039216%,25.490196%);fill-opacity:1;" d="M 215.65625 145.050781 C 215.542969 142.296875 217.066406 139.742188 219.539062 138.53125 C 222.742188 136.875 224.753906 133.339844 223.871094 130.113281 C 222.742188 125.984375 217.128906 123.304688 212.582031 124.726562 C 211.351562 125.164062 210.164062 125.71875 209.039062 126.378906 L 206.066406 127.972656 C 204.796875 128.609375 203.574219 129.332031 202.40625 130.136719 C 198.835938 132.769531 196.984375 137.140625 197.566406 141.539062 C 198.152344 145.738281 200.898438 149.589844 204.65625 152.226562 C 206.09375 153.300781 207.753906 154.039062 209.515625 154.386719 C 211.316406 154.683594 213.320312 154.347656 214.636719 153.226562 C 216.695312 151.472656 216.484375 148.535156 215.816406 146.082031 C 215.730469 145.746094 215.675781 145.398438 215.65625 145.050781 Z M 215.65625 145.050781 "/>
<path style=" stroke:none;fill-rule:nonzero;fill:rgb(80%,80%,80%);fill-opacity:1;" d="M 251.480469 299.863281 L 169.941406 299.863281 C 169.703125 299.863281 169.511719 299.671875 169.511719 299.433594 C 169.511719 299.195312 169.703125 299.003906 169.941406 299.003906 L 251.480469 299.003906 C 251.714844 299.003906 251.910156 299.195312 251.910156 299.433594 C 251.910156 299.671875 251.714844 299.863281 251.480469 299.863281 Z M 251.480469 299.863281 "/>
<path style=" stroke:none;fill-rule:nonzero;fill:rgb(90.196078%,90.196078%,90.196078%);fill-opacity:1;" d="M 118.40625 221.457031 L 51.125 249.097656 C 48.71875 250.085938 45.972656 248.933594 44.980469 246.527344 L 24.386719 196.246094 C 23.664062 194.480469 24.507812 192.464844 26.269531 191.738281 L 95.824219 163.160156 C 97.617188 162.425781 99.664062 163.285156 100.402344 165.078125 L 120.972656 215.304688 C 121.957031 217.710938 120.808594 220.464844 118.40625 221.457031 Z M 118.40625 221.457031 "/>
<path style=" stroke:none;fill-rule:nonzero;fill:rgb(100%,100%,100%);fill-opacity:1;" d="M 53.5625 243 L 112.394531 218.828125 C 114.726562 217.871094 115.84375 215.199219 114.886719 212.863281 L 98.253906 172.261719 C 97.296875 169.925781 94.628906 168.808594 92.296875 169.765625 L 33.464844 193.9375 C 31.132812 194.898438 30.015625 197.570312 30.972656 199.90625 L 47.605469 240.503906 C 48.5625 242.84375 51.230469 243.960938 53.5625 243 Z M 53.5625 243 "/>
<path style=" stroke:none;fill-rule:nonzero;fill:rgb(90.196078%,90.196078%,90.196078%);fill-opacity:1;" d="M 97.066406 183.691406 L 97.929688 183.335938 L 97.988281 183.480469 L 97.125 183.835938 Z M 97.066406 183.691406 "/>
<path style=" stroke:none;fill-rule:nonzero;fill:rgb(90.196078%,90.196078%,90.196078%);fill-opacity:1;" d="M 95.375 184.550781 L 93.628906 185.269531 L 93.570312 185.125 L 95.316406 184.40625 Z M 91.882812 185.988281 L 90.132812 186.707031 L 90.074219 186.5625 L 91.824219 185.84375 Z M 88.386719 187.425781 L 86.640625 188.140625 L 86.582031 187.996094 L 88.328125 187.28125 Z M 84.890625 188.859375 L 83.144531 189.578125 L 83.085938 189.433594 L 84.832031 188.714844 Z M 81.398438 190.296875 L 79.648438 191.011719 L 79.589844 190.871094 L 81.339844 190.152344 Z M 77.902344 191.730469 L 76.15625 192.449219 L 76.097656 192.304688 L 77.84375 191.585938 Z M 74.40625 193.167969 L 72.660156 193.886719 L 72.601562 193.742188 L 74.347656 193.023438 Z M 70.914062 194.601562 L 69.164062 195.320312 L 69.105469 195.175781 L 70.855469 194.457031 Z M 67.417969 196.039062 L 65.671875 196.757812 L 65.613281 196.613281 L 67.359375 195.894531 Z M 63.921875 197.476562 L 62.175781 198.191406 L 62.117188 198.046875 L 63.863281 197.332031 Z M 60.429688 198.910156 L 58.679688 199.628906 L 58.621094 199.484375 L 60.371094 198.765625 Z M 56.933594 200.347656 L 55.1875 201.066406 L 55.128906 200.921875 L 56.875 200.203125 Z M 53.4375 201.78125 L 51.691406 202.5 L 51.632812 202.355469 L 53.378906 201.636719 Z M 49.945312 203.21875 L 48.195312 203.9375 L 48.136719 203.792969 L 49.886719 203.074219 Z M 46.449219 204.65625 L 44.703125 205.371094 L 44.644531 205.226562 L 46.390625 204.511719 Z M 42.957031 206.089844 L 41.207031 206.808594 L 41.148438 206.664062 L 42.894531 205.945312 Z M 42.957031 206.089844 "/>
<path style=" stroke:none;fill-rule:nonzero;fill:rgb(90.196078%,90.196078%,90.196078%);fill-opacity:1;" d="M 38.535156 207.738281 L 39.402344 207.382812 L 39.460938 207.527344 L 38.59375 207.882812 Z M 38.535156 207.738281 "/>
<path style=" stroke:none;fill-rule:nonzero;fill:rgb(90.196078%,90.196078%,90.196078%);fill-opacity:1;" d="M 74.164062 208.785156 L 75.03125 208.429688 L 75.089844 208.574219 L 74.226562 208.929688 Z M 74.164062 208.785156 "/>
<path style=" stroke:none;fill-rule:nonzero;fill:rgb(90.196078%,90.196078%,90.196078%);fill-opacity:1;" d="M 72.503906 209.636719 L 70.78125 210.34375 L 70.722656 210.199219 L 72.445312 209.492188 Z M 69.058594 211.050781 L 67.339844 211.757812 L 67.28125 211.613281 L 69 210.90625 Z M 65.617188 212.464844 L 63.894531 213.171875 L 63.835938 213.027344 L 65.558594 212.320312 Z M 62.175781 213.878906 L 60.453125 214.589844 L 60.394531 214.445312 L 62.117188 213.738281 Z M 58.730469 215.296875 L 57.011719 216.003906 L 56.953125 215.859375 L 58.671875 215.152344 Z M 55.289062 216.710938 L 53.566406 217.417969 L 53.507812 217.273438 L 55.230469 216.566406 Z M 51.847656 218.125 L 50.125 218.832031 L 50.066406 218.6875 L 51.785156 217.980469 Z M 48.402344 219.539062 L 46.683594 220.246094 L 46.621094 220.101562 L 48.34375 219.394531 Z M 48.402344 219.539062 "/>
<path style=" stroke:none;fill-rule:nonzero;fill:rgb(90.196078%,90.196078%,90.196078%);fill-opacity:1;" d="M 44.035156 221.164062 L 44.902344 220.808594 L 44.960938 220.953125 L 44.09375 221.308594 Z M 44.035156 221.164062 "/>
<path style=" stroke:none;fill-rule:nonzero;fill:rgb(90.196078%,90.196078%,90.196078%);fill-opacity:1;" d="M 59.902344 222.066406 L 60.765625 221.710938 L 60.824219 221.855469 L 59.960938 222.210938 Z M 59.902344 222.066406 "/>
<path style=" stroke:none;fill-rule:nonzero;fill:rgb(90.196078%,90.196078%,90.196078%);fill-opacity:1;" d="M 58.1875 222.941406 L 56.417969 223.667969 L 56.359375 223.523438 L 58.128906 222.796875 Z M 54.648438 224.394531 L 52.875 225.125 L 52.816406 224.980469 L 54.585938 224.25 Z M 51.105469 225.851562 L 49.332031 226.578125 L 49.273438 226.433594 L 51.046875 225.707031 Z M 51.105469 225.851562 "/>
<path style=" stroke:none;fill-rule:nonzero;fill:rgb(90.196078%,90.196078%,90.196078%);fill-opacity:1;" d="M 46.636719 227.515625 L 47.503906 227.160156 L 47.5625 227.304688 L 46.699219 227.660156 Z M 46.636719 227.515625 "/>
<path style=" stroke:none;fill-rule:nonzero;fill:rgb(90.196078%,90.196078%,90.196078%);fill-opacity:1;" d="M 64.34375 232.910156 L 65.207031 232.554688 L 65.265625 232.699219 L 64.402344 233.054688 Z M 64.34375 232.910156 "/>
<path style=" stroke:none;fill-rule:nonzero;fill:rgb(90.196078%,90.196078%,90.196078%);fill-opacity:1;" d="M 62.628906 233.78125 L 60.859375 234.507812 L 60.800781 234.363281 L 62.570312 233.636719 Z M 59.085938 235.238281 L 57.316406 235.964844 L 57.257812 235.820312 L 59.027344 235.09375 Z M 55.546875 236.691406 L 53.773438 237.417969 L 53.714844 237.273438 L 55.488281 236.546875 Z M 55.546875 236.691406 "/>
<path style=" stroke:none;fill-rule:nonzero;fill:rgb(90.196078%,90.196078%,90.196078%);fill-opacity:1;" d="M 51.078125 238.359375 L 51.945312 238.003906 L 52.003906 238.148438 L 51.136719 238.503906 Z M 51.078125 238.359375 "/>
<path style=" stroke:none;fill-rule:nonzero;fill:rgb(31.372549%,37.254902%,59.607843%);fill-opacity:1;" d="M 56.058594 236.609375 L 105.917969 216.125 C 108.429688 215.089844 109.628906 212.210938 108.601562 209.695312 L 98.527344 185.101562 L 98.429688 185.144531 L 86.195312 214.445312 L 77.121094 210.644531 C 76.78125 210.5 76.394531 210.527344 76.078125 210.710938 C 75.839844 210.851562 75.65625 211.070312 75.558594 211.328125 L 69.144531 226.679688 L 62.511719 223.902344 C 61.910156 223.648438 61.214844 223.933594 60.964844 224.539062 C 60.921875 224.640625 56.832031 234.695312 56.058594 236.609375 Z M 56.058594 236.609375 "/>
<path style=" stroke:none;fill-rule:nonzero;fill:rgb(24.705882%,23.921569%,33.72549%);fill-opacity:1;" d="M 55.90625 236.839844 L 55.761719 236.78125 L 60.894531 224.496094 C 61.175781 223.820312 61.953125 223.5 62.625 223.78125 L 69.128906 226.507812 L 75.503906 211.238281 C 75.789062 210.5625 76.5625 210.242188 77.238281 210.527344 L 86.179688 214.273438 L 98.480469 184.820312 L 98.621094 184.878906 L 86.265625 214.476562 L 77.179688 210.667969 C 76.582031 210.421875 75.898438 210.703125 75.648438 211.296875 L 69.214844 226.710938 L 62.566406 223.925781 C 61.972656 223.679688 61.285156 223.960938 61.039062 224.554688 Z M 55.90625 236.839844 "/>
<path style=" stroke:none;fill-rule:nonzero;fill:rgb(24.705882%,23.921569%,33.72549%);fill-opacity:1;" d="M 61.886719 221.785156 C 61.886719 222.386719 61.398438 222.878906 60.796875 222.878906 C 60.191406 222.878906 59.703125 222.386719 59.703125 221.785156 C 59.703125 221.179688 60.191406 220.691406 60.796875 220.691406 C 61.398438 220.691406 61.886719 221.179688 61.886719 221.785156 Z M 61.886719 221.785156 "/>
<path style=" stroke:none;fill-rule:nonzero;fill:rgb(24.705882%,23.921569%,33.72549%);fill-opacity:1;" d="M 76.152344 208.503906 C 76.152344 209.105469 75.664062 209.59375 75.058594 209.59375 C 74.457031 209.59375 73.96875 209.105469 73.96875 208.503906 C 73.96875 207.898438 74.457031 207.410156 75.058594 207.410156 C 75.664062 207.410156 76.152344 207.898438 76.152344 208.503906 Z M 76.152344 208.503906 "/>
<path style=" stroke:none;fill-rule:nonzero;fill:rgb(24.705882%,23.921569%,33.72549%);fill-opacity:1;" d="M 98.363281 183.367188 C 98.363281 183.972656 97.875 184.460938 97.269531 184.460938 C 96.667969 184.460938 96.179688 183.972656 96.179688 183.367188 C 96.179688 182.765625 96.667969 182.277344 97.269531 182.277344 C 97.875 182.277344 98.363281 182.765625 98.363281 183.367188 Z M 98.363281 183.367188 "/>
<path style=" stroke:none;fill-rule:nonzero;fill:rgb(100%,72.156863%,72.156863%);fill-opacity:1;" d="M 36.21875 220.546875 C 37.367188 219.972656 38.203125 218.921875 38.503906 217.671875 C 38.800781 216.425781 38.535156 215.105469 37.769531 214.074219 L 41.007812 182.355469 L 34.007812 182.355469 L 31.433594 213.328125 C 29.753906 214.761719 29.40625 217.226562 30.625 219.066406 C 31.847656 220.90625 34.25 221.542969 36.21875 220.546875 Z M 36.21875 220.546875 "/>
<path style=" stroke:none;fill-rule:nonzero;fill:rgb(100%,72.156863%,72.156863%);fill-opacity:1;" d="M 52.554688 154.929688 C 52.554688 160.40625 48.117188 164.847656 42.648438 164.847656 C 37.179688 164.847656 32.742188 160.40625 32.742188 154.929688 C 32.742188 149.449219 37.179688 145.007812 42.648438 145.007812 C 48.117188 145.007812 52.554688 149.449219 52.554688 154.929688 Z M 52.554688 154.929688 "/>
<path style=" stroke:none;fill-rule:nonzero;fill:rgb(100%,39.607843%,51.764706%);fill-opacity:1;" d="M 44.511719 200.828125 C 43.699219 200.828125 42.984375 200.28125 42.765625 199.496094 C 41.972656 196.609375 39.910156 191.726562 36.632812 184.984375 C 35.136719 181.902344 35.023438 178.328125 36.324219 175.15625 C 37.628906 171.988281 40.21875 169.523438 43.445312 168.386719 C 46.503906 167.308594 49.867188 167.511719 52.769531 168.953125 C 55.671875 170.394531 57.871094 172.953125 58.863281 176.042969 C 61.402344 184.019531 61.28125 192.566406 61.109375 195.871094 C 61.066406 196.6875 60.484375 197.375 59.683594 197.554688 L 44.902344 200.785156 C 44.773438 200.8125 44.644531 200.828125 44.511719 200.828125 Z M 44.511719 200.828125 "/>
<path style=" stroke:none;fill-rule:nonzero;fill:rgb(100%,72.156863%,72.156863%);fill-opacity:1;" d="M 58.828125 295.023438 L 63.773438 295.023438 L 66.125 275.925781 L 58.828125 275.925781 Z M 58.828125 295.023438 "/>
<path style=" stroke:none;fill-rule:nonzero;fill:rgb(18.431373%,18.039216%,25.490196%);fill-opacity:1;" d="M 73.308594 299.621094 L 57.769531 299.625 L 57.769531 293.609375 L 67.304688 293.609375 C 70.617188 293.609375 73.308594 296.300781 73.308594 299.621094 Z M 73.308594 299.621094 "/>
<path style=" stroke:none;fill-rule:nonzero;fill:rgb(100%,72.156863%,72.156863%);fill-opacity:1;" d="M 9.390625 288.609375 L 13.722656 290.992188 L 24.972656 275.394531 L 18.578125 271.871094 Z M 9.390625 288.609375 "/>
<path style=" stroke:none;fill-rule:nonzero;fill:rgb(18.431373%,18.039216%,25.490196%);fill-opacity:1;" d="M 19.867188 299.625 L 6.25 292.125 L 9.144531 286.855469 L 17.5 291.457031 C 20.402344 293.058594 21.464844 296.714844 19.867188 299.625 Z M 19.867188 299.625 "/>
<path style=" stroke:none;fill-rule:nonzero;fill:rgb(18.431373%,18.039216%,25.490196%);fill-opacity:1;" d="M 58.597656 284.425781 C 57.6875 284.421875 56.917969 283.746094 56.800781 282.839844 L 50.617188 235.121094 C 50.558594 234.691406 50.234375 234.34375 49.804688 234.261719 C 49.375 234.179688 48.945312 234.382812 48.734375 234.765625 L 22.964844 281.585938 C 22.527344 282.378906 21.574219 282.726562 20.730469 282.410156 L 15.113281 280.265625 C 14.65625 280.089844 14.289062 279.742188 14.09375 279.292969 C 13.898438 278.84375 13.894531 278.335938 14.078125 277.882812 L 31.929688 233.964844 C 31.972656 233.851562 32.003906 233.738281 32.019531 233.617188 C 34.4375 214.875 40.589844 205.34375 42.417969 202.871094 C 42.6875 202.5 42.761719 202.023438 42.617188 201.589844 L 42.367188 200.832031 C 42.160156 200.222656 42.292969 199.550781 42.714844 199.066406 C 49.300781 191.554688 60.78125 195.652344 60.894531 195.695312 L 60.953125 195.714844 L 60.988281 195.765625 C 73.859375 213.445312 69.101562 270.867188 68.015625 282.195312 C 67.933594 283.074219 67.230469 283.765625 66.347656 283.832031 L 58.738281 284.417969 C 58.691406 284.421875 58.644531 284.425781 58.597656 284.425781 Z M 58.597656 284.425781 "/>
<path style=" stroke:none;fill-rule:nonzero;fill:rgb(100%,72.156863%,72.156863%);fill-opacity:1;" d="M 81.152344 166.453125 C 81.105469 166.667969 81.074219 166.890625 81.058594 167.113281 L 63.734375 177.125 L 59.523438 174.695312 L 55.035156 180.582031 L 62.070312 185.605469 C 63.238281 186.4375 64.816406 186.398438 65.941406 185.511719 L 83.804688 171.394531 C 85.457031 172.007812 87.3125 171.53125 88.46875 170.203125 C 89.625 168.875 89.835938 166.964844 89.003906 165.414062 C 88.171875 163.859375 86.464844 162.984375 84.722656 163.214844 C 82.976562 163.449219 81.554688 164.734375 81.152344 166.453125 Z M 81.152344 166.453125 "/>
<path style=" stroke:none;fill-rule:nonzero;fill:rgb(100%,39.607843%,51.764706%);fill-opacity:1;" d="M 63.15625 177.597656 L 57.554688 184.863281 C 57.234375 185.28125 56.746094 185.539062 56.21875 185.570312 C 55.691406 185.597656 55.179688 185.394531 54.8125 185.015625 L 48.472656 178.421875 C 46.285156 176.710938 45.890625 173.546875 47.59375 171.347656 C 49.296875 169.152344 52.457031 168.75 54.65625 170.449219 L 62.605469 174.902344 C 63.066406 175.160156 63.390625 175.605469 63.496094 176.121094 C 63.601562 176.640625 63.476562 177.179688 63.15625 177.597656 Z M 63.15625 177.597656 "/>
<path style=" stroke:none;fill-rule:nonzero;fill:rgb(100%,39.607843%,51.764706%);fill-opacity:1;" d="M 41.453125 190.222656 L 32.433594 188.59375 C 31.914062 188.5 31.464844 188.183594 31.195312 187.726562 C 30.925781 187.273438 30.871094 186.722656 31.039062 186.222656 L 33.960938 177.550781 C 34.472656 174.816406 37.09375 173.011719 39.828125 173.511719 C 42.558594 174.015625 44.371094 176.636719 43.875 179.375 L 43.589844 188.492188 C 43.574219 189.019531 43.328125 189.515625 42.917969 189.847656 C 42.507812 190.179688 41.972656 190.316406 41.453125 190.222656 Z M 41.453125 190.222656 "/>
<path style=" stroke:none;fill-rule:nonzero;fill:rgb(18.431373%,18.039216%,25.490196%);fill-opacity:1;" d="M 44.214844 152.648438 C 46.761719 154.390625 50.105469 156.1875 52.703125 154.328125 C 54.375 153.054688 55.007812 150.828125 54.257812 148.863281 C 53.011719 145.300781 49.589844 143.730469 46.320312 142.527344 C 42.070312 140.960938 37.4375 139.71875 33.046875 140.835938 C 28.660156 141.957031 24.78125 146.214844 25.570312 150.683594 C 26.210938 154.273438 29.59375 157.261719 29.113281 160.878906 C 28.628906 164.519531 24.542969 166.433594 20.933594 167.085938 C 17.324219 167.738281 13.285156 167.945312 10.695312 170.542969 C 7.386719 173.851562 8.210938 179.769531 11.324219 183.265625 C 14.4375 186.761719 19.132812 188.347656 23.6875 189.425781 C 29.71875 190.851562 36.238281 191.601562 41.96875 189.234375 C 47.695312 186.867188 52.152344 180.488281 50.492188 174.507812 C 49.792969 171.984375 48.140625 169.847656 46.546875 167.769531 C 44.949219 165.691406 43.335938 163.519531 42.726562 160.96875 C 42.21875 158.84375 42.59375 156.378906 44 154.785156 C 44.527344 154.210938 44.621094 153.367188 44.242188 152.6875 Z M 44.214844 152.648438 "/>
<path style=" stroke:none;fill-rule:nonzero;fill:rgb(80%,80%,80%);fill-opacity:1;" d="M 81.96875 299.863281 L 0.429688 299.863281 C 0.191406 299.863281 0 299.671875 0 299.433594 C 0 299.195312 0.191406 299.003906 0.429688 299.003906 L 81.96875 299.003906 C 82.203125 299.003906 82.394531 299.195312 82.394531 299.433594 C 82.394531 299.671875 82.203125 299.863281 81.96875 299.863281 Z M 81.96875 299.863281 "/>
</g>
</svg>
